<?xml version="1.0" encoding="UTF-8"?>
<!DOCTYPE svg PUBLIC "-//W3C//DTD SVG 1.1//EN" "http://www.w3.org/Graphics/SVG/1.1/DTD/svg11.dtd">
<svg xmlns="http://www.w3.org/2000/svg" version="1.1" width="512px" height="512px" style="shape-rendering:geometricPrecision; text-rendering:geometricPrecision; image-rendering:optimizeQuality; fill-rule:evenodd; clip-rule:evenodd" xmlns:xlink="http://www.w3.org/1999/xlink">
<g><path style="opacity:0.982" fill="#fefefe" d="M 187.5,9.5 C 232.835,9.33334 278.168,9.50001 323.5,10C 333,12.1667 338.833,18 341,27.5C 341.5,57.1648 341.667,86.8315 341.5,116.5C 390.56,116.014 439.56,116.514 488.5,118C 498.229,123.622 502.562,132.122 501.5,143.5C 502.637,156.414 497.304,165.247 485.5,170C 332.167,170.667 178.833,170.667 25.5,170C 13.6963,165.247 8.36293,156.414 9.5,143.5C 8.43788,132.122 12.7712,123.622 22.5,118C 71.4403,116.514 120.44,116.014 169.5,116.5C 169.333,86.8315 169.5,57.1648 170,27.5C 172.014,17.654 177.847,11.654 187.5,9.5 Z M 253.5,42.5 C 258.971,42.1558 262.805,44.4891 265,49.5C 265.5,57.8267 265.666,66.16 265.5,74.5C 273.507,74.3336 281.507,74.5003 289.5,75C 297.029,77.8931 299.195,83.0597 296,90.5C 294.786,92.0488 293.286,93.2155 291.5,94C 282.902,95.3759 274.235,95.8759 265.5,95.5C 265.666,103.84 265.5,112.173 265,120.5C 261.252,126.542 256.085,128.042 249.5,125C 247.951,123.786 246.785,122.286 246,120.5C 245.5,112.173 245.334,103.84 245.5,95.5C 236.765,95.8759 228.098,95.3759 219.5,94C 213.533,90.6076 212.033,85.7742 215,79.5C 216.637,77.1898 218.804,75.6898 221.5,75C 229.493,74.5003 237.493,74.3336 245.5,74.5C 245.334,66.16 245.5,57.8267 246,49.5C 247.767,46.228 250.267,43.8947 253.5,42.5 Z"/></g>
<g><path style="opacity:0.995" fill="#fefefe" d="M 31.5,191.5 C 180.833,191.5 330.167,191.5 479.5,191.5C 479.5,269.833 479.5,348.167 479.5,426.5C 443.833,426.5 408.167,426.5 372.5,426.5C 372.667,365.166 372.5,303.832 372,242.5C 370.833,238.667 368.333,236.167 364.5,235C 291.833,234.333 219.167,234.333 146.5,235C 142.667,236.167 140.167,238.667 139,242.5C 138.5,303.832 138.333,365.166 138.5,426.5C 102.833,426.5 67.1667,426.5 31.5,426.5C 31.5,348.167 31.5,269.833 31.5,191.5 Z"/></g>
<g><path style="opacity:0.99" fill="#fefefe" d="M 159.5,255.5 C 188.167,255.5 216.833,255.5 245.5,255.5C 245.5,312.5 245.5,369.5 245.5,426.5C 216.833,426.5 188.167,426.5 159.5,426.5C 159.5,369.5 159.5,312.5 159.5,255.5 Z"/></g>
<g><path style="opacity:0.99" fill="#fefefe" d="M 265.5,255.5 C 294.167,255.5 322.833,255.5 351.5,255.5C 351.5,312.5 351.5,369.5 351.5,426.5C 322.833,426.5 294.167,426.5 265.5,426.5C 265.5,369.5 265.5,312.5 265.5,255.5 Z"/></g>
<g><path style="opacity:0.985" fill="#fefefe" d="M 15.5,447.5 C 175.5,447.333 335.5,447.5 495.5,448C 500.748,452.237 502.748,457.737 501.5,464.5C 502.112,484.379 492.779,496.545 473.5,501C 328.167,501.667 182.833,501.667 37.5,501C 22.3333,497.833 13.1667,488.667 10,473.5C 9.33333,467.5 9.33333,461.5 10,455.5C 11.2433,452.424 13.0767,449.757 15.5,447.5 Z"/></g>
</svg>
