<?xml version="1.0" encoding="UTF-8"?>
<!DOCTYPE svg PUBLIC "-//W3C//DTD SVG 1.1//EN" "http://www.w3.org/Graphics/SVG/1.1/DTD/svg11.dtd">
<svg xmlns="http://www.w3.org/2000/svg" version="1.1" width="512px" height="512px" style="shape-rendering:geometricPrecision; text-rendering:geometricPrecision; image-rendering:optimizeQuality; fill-rule:evenodd; clip-rule:evenodd" xmlns:xlink="http://www.w3.org/1999/xlink">
<g><path style="opacity:0.925" fill="#fefefe" d="M 256.5,12.5 C 287.512,12.9312 314.012,23.9312 336,45.5C 350.906,64.9976 356.572,86.9976 353,111.5C 351.301,125.463 347.801,138.963 342.5,152C 352.063,157.44 357.063,165.773 357.5,177C 357.957,186.025 355.79,194.525 351,202.5C 347.057,206.89 342.224,209.89 336.5,211.5C 331.55,234.583 320.55,254.083 303.5,270C 304.615,280.128 307.281,289.795 311.5,299C 326.833,303.667 342.167,308.333 357.5,313C 361.089,314.674 362.755,317.507 362.5,321.5C 407.224,322.408 437.39,343.741 453,385.5C 454.976,392.379 456.309,399.379 457,406.5C 457.976,436.228 457.643,465.895 456,495.5C 454.829,496.893 453.329,497.727 451.5,498C 320.833,498.667 190.167,498.667 59.5,498C 57.6711,497.727 56.1711,496.893 55,495.5C 53.3573,465.895 53.024,436.228 54,406.5C 58.6826,368.505 78.516,342.005 113.5,327C 124.478,322.979 135.811,321.146 147.5,321.5C 147.411,317.567 149.078,314.734 152.5,313C 167.833,308.333 183.167,303.667 198.5,299C 203.598,289.109 206.098,278.609 206,267.5C 189.467,252.949 178.967,234.783 174.5,213C 164.201,208.699 157.368,201.199 154,190.5C 150.53,176.029 154.03,163.696 164.5,153.5C 148.691,127.664 145.191,100.331 154,71.5C 165.583,47.6108 184.75,35.1108 211.5,34C 223.726,20.886 238.726,13.7194 256.5,12.5 Z M 255.5,27.5 C 284.047,27.3656 307.88,37.699 327,58.5C 337.427,74.2966 341.094,91.6299 338,110.5C 336.844,118.278 335.178,125.945 333,133.5C 327.062,115.228 314.895,103.395 296.5,98C 265.38,101.512 238.047,93.1783 214.5,73C 208.67,72.0772 203.67,73.7439 199.5,78C 183.027,92.4442 173.527,110.611 171,132.5C 160.096,109.873 161.096,87.8734 174,66.5C 185.65,53.8335 200.15,48.0001 217.5,49C 227.387,36.8906 240.054,29.724 255.5,27.5 Z M 209.5,89.5 C 234.693,108.052 263.026,115.886 294.5,113C 305.883,116.714 313.716,124.214 318,135.5C 321.148,144.238 323.148,153.238 324,162.5C 327.757,165.936 332.257,167.436 337.5,167C 341.126,170.54 342.793,174.874 342.5,180C 342.917,186.028 340.917,191.028 336.5,195C 332.002,196.526 327.669,198.36 323.5,200.5C 320.735,221.863 311.735,240.03 296.5,255C 266.212,275.459 237.046,273.959 209,250.5C 196.778,236.05 189.445,219.383 187,200.5C 182.765,198.175 178.265,196.342 173.5,195C 171.383,193.269 169.883,191.102 169,188.5C 168.333,183.167 168.333,177.833 169,172.5C 169.667,171.167 170.333,169.833 171,168.5C 174.681,166.965 178.514,165.798 182.5,165C 183.701,164.097 184.535,162.931 185,161.5C 182.566,139.999 186.9,119.999 198,101.5C 201.364,96.9715 205.197,92.9715 209.5,89.5 Z M 220.5,276.5 C 243.347,287.123 266.18,287.123 289,276.5C 291.008,287.706 294.175,298.539 298.5,309C 296.172,323.466 294.172,337.966 292.5,352.5C 267.562,355.495 242.729,355.162 218,351.5C 215.926,337.318 213.76,323.152 211.5,309C 216.291,298.672 219.291,287.839 220.5,276.5 Z M 194.5,315.5 C 195.5,315.5 196.5,315.5 197.5,315.5C 204.759,361.813 211.592,408.146 218,454.5C 202.625,429.583 187.125,404.749 171.5,380C 174.297,376.201 177.464,372.701 181,369.5C 183.374,366.199 184.04,362.533 183,358.5C 177.5,347.5 172,336.5 166.5,325.5C 166.709,324.914 167.043,324.414 167.5,324C 176.766,321.631 185.766,318.798 194.5,315.5 Z M 312.5,315.5 C 323.25,318.355 333.917,321.521 344.5,325C 337.673,337.318 331.673,349.985 326.5,363C 326.667,364.167 326.833,365.333 327,366.5C 330.833,371 334.667,375.5 338.5,380C 322.875,404.749 307.375,429.583 292,454.5C 298.776,408.235 305.61,361.901 312.5,315.5 Z M 110.5,345.5 C 104.871,359.606 102.371,374.272 103,389.5C 83.4307,402.874 77.4307,420.874 85,443.5C 90.791,458.672 99.791,460.672 112,449.5C 112.782,439.938 108.782,436.938 100,440.5C 92.7531,423.239 97.2531,410.073 113.5,401C 126.252,397.959 136.418,401.792 144,412.5C 146.409,416.892 147.909,421.558 148.5,426.5C 142.048,427.392 139.548,431.059 141,437.5C 141.833,438.333 142.667,439.167 143.5,440C 148.343,441.863 153.343,442.53 158.5,442C 161.102,441.065 162.602,439.232 163,436.5C 165.669,414.334 157.169,398.168 137.5,388C 131.068,385.48 124.401,384.314 117.5,384.5C 117.61,370.057 121.443,356.723 129,344.5C 131.5,342 134,339.5 136.5,337C 142.859,336.169 149.193,336.336 155.5,337.5C 159.5,345.5 163.5,353.5 167.5,361.5C 163.481,365.685 159.647,370.018 156,374.5C 155.009,376.447 154.675,378.447 155,380.5C 175.582,414.667 196.416,448.667 217.5,482.5C 167.838,483.5 118.171,483.833 68.5,483.5C 68.3334,457.498 68.5,431.498 69,405.5C 72.7309,378.329 86.5642,358.329 110.5,345.5 Z M 354.5,336.5 C 359.844,336.334 365.177,336.501 370.5,337C 377.269,345.373 381.769,354.873 384,365.5C 385.386,372.484 386.553,379.484 387.5,386.5C 367.653,395.853 362.486,410.52 372,430.5C 387.333,446.5 402.667,446.5 418,430.5C 425.428,416.269 423.595,403.436 412.5,392C 409.196,389.788 405.696,387.955 402,386.5C 401.293,370.959 397.793,356.126 391.5,342C 416.534,351.044 432.701,368.544 440,394.5C 440.774,398.147 441.441,401.814 442,405.5C 442.5,431.498 442.667,457.498 442.5,483.5C 392.496,483.833 342.496,483.5 292.5,482.5C 313.333,448.833 334.167,415.167 355,381.5C 355.706,379.029 355.373,376.695 354,374.5C 350.167,370 346.333,365.5 342.5,361C 346.911,353.011 350.911,344.844 354.5,336.5 Z M 220.5,367.5 C 243.502,370.088 266.502,370.088 289.5,367.5C 283.833,406.167 278.167,444.833 272.5,483.5C 260.833,483.5 249.167,483.5 237.5,483.5C 232.206,444.778 226.54,406.111 220.5,367.5 Z M 390.5,401.5 C 402.649,400.815 408.149,406.482 407,418.5C 401.189,428.287 393.856,429.62 385,422.5C 380.073,413.879 381.906,406.879 390.5,401.5 Z"/></g>
</svg>
