<?xml version="1.0" encoding="UTF-8"?>
<!DOCTYPE svg PUBLIC "-//W3C//DTD SVG 1.1//EN" "http://www.w3.org/Graphics/SVG/1.1/DTD/svg11.dtd">
<svg xmlns="http://www.w3.org/2000/svg" version="1.1" width="512px" height="512px" style="shape-rendering:geometricPrecision; text-rendering:geometricPrecision; image-rendering:optimizeQuality; fill-rule:evenodd; clip-rule:evenodd" xmlns:xlink="http://www.w3.org/1999/xlink">
<g><path style="opacity:0.969" fill="#5c6672" d="M 239.5,14.5 C 297.287,10.3111 341.787,32.3111 373,80.5C 383.33,98.4857 389.33,117.819 391,138.5C 391.5,162.164 391.667,185.831 391.5,209.5C 415.741,211.246 430.574,223.913 436,247.5C 436.667,318.167 436.667,388.833 436,459.5C 431.951,479.216 420.118,491.383 400.5,496C 303.833,496.667 207.167,496.667 110.5,496C 90.8823,491.383 79.049,479.216 75,459.5C 74.3333,388.833 74.3333,318.167 75,247.5C 80.4262,223.913 95.2595,211.246 119.5,209.5C 119.085,182.805 119.585,156.139 121,129.5C 134.483,64.1813 173.983,25.848 239.5,14.5 Z M 242.5,45.5 C 292.94,42.627 329.44,63.627 352,108.5C 356.393,119.074 359.06,130.074 360,141.5C 360.5,164.164 360.667,186.831 360.5,209.5C 290.5,209.5 220.5,209.5 150.5,209.5C 150.079,184.136 150.579,158.803 152,133.5C 159.534,93.2988 182.368,65.7988 220.5,51C 227.885,48.8294 235.218,46.9961 242.5,45.5 Z M 119.5,240.5 C 210.167,240.333 300.834,240.5 391.5,241C 398.582,241.28 403.082,244.78 405,251.5C 405.667,319.5 405.667,387.5 405,455.5C 403.833,460.667 400.667,463.833 395.5,465C 302.167,465.667 208.833,465.667 115.5,465C 110.333,463.833 107.167,460.667 106,455.5C 105.333,387.5 105.333,319.5 106,251.5C 108.144,244.856 112.644,241.189 119.5,240.5 Z M 250.5,316.5 C 265.326,315.484 271.492,322.151 269,336.5C 263.029,345.929 255.196,347.763 245.5,342C 240.1,335.397 239.6,328.564 244,321.5C 245.965,319.45 248.132,317.783 250.5,316.5 Z"/></g>
<g><path style="opacity:0.958" fill="#5c6672" d="M 245.5,285.5 C 278.766,282.948 297.433,298.115 301.5,331C 300.422,351.344 290.589,365.511 272,373.5C 271.667,384.833 271.333,396.167 271,407.5C 270.082,416.875 264.915,421.542 255.5,421.5C 246.085,421.542 240.918,416.875 240,407.5C 239.667,396.167 239.333,384.833 239,373.5C 215.957,362.75 206.623,344.75 211,319.5C 216.097,301.569 227.597,290.236 245.5,285.5 Z M 250.5,316.5 C 248.132,317.783 245.965,319.45 244,321.5C 239.6,328.564 240.1,335.397 245.5,342C 255.196,347.763 263.029,345.929 269,336.5C 271.492,322.151 265.326,315.484 250.5,316.5 Z"/></g>
</svg>
