<?xml version="1.0" encoding="UTF-8"?>
<!DOCTYPE svg PUBLIC "-//W3C//DTD SVG 1.1//EN" "http://www.w3.org/Graphics/SVG/1.1/DTD/svg11.dtd">
<svg xmlns="http://www.w3.org/2000/svg" version="1.1" width="512px" height="512px" style="shape-rendering:geometricPrecision; text-rendering:geometricPrecision; image-rendering:optimizeQuality; fill-rule:evenodd; clip-rule:evenodd" xmlns:xlink="http://www.w3.org/1999/xlink">
<g><path style="opacity:0.966" fill="#fefefe" d="M 251.5,5.5 C 276.601,5.93536 290.601,18.602 293.5,43.5C 291.167,66.5 278.5,79.1667 255.5,81.5C 232.5,79.1667 219.833,66.5 217.5,43.5C 219.432,22.2424 230.766,9.5757 251.5,5.5 Z"/></g>
<g><path style="opacity:0.969" fill="#fefefe" d="M 4.5,78.5 C 50.8345,78.3333 97.1679,78.5 143.5,79C 176.514,85.3435 197.347,104.844 206,137.5C 211.973,146.737 220.473,151.07 231.5,150.5C 231.5,163.167 231.5,175.833 231.5,188.5C 225.833,188.5 220.167,188.5 214.5,188.5C 212.564,173.231 203.897,165.231 188.5,164.5C 167.976,165.433 150.309,172.933 135.5,187C 125.5,187.667 115.5,187.667 105.5,187C 91.6449,183.644 82.9783,175.144 79.5,161.5C 107.835,161.667 136.169,161.5 164.5,161C 168.588,157.51 168.255,154.51 163.5,152C 132.5,151.667 101.5,151.333 70.5,151C 56.6713,148.007 47.3379,139.84 42.5,126.5C 70.8275,125.667 99.1608,125.167 127.5,125C 130.379,123.334 131.212,120.834 130,117.5C 129.25,116.874 128.416,116.374 127.5,116C 95.1273,115.964 62.7939,115.297 30.5,114C 14.3669,107.692 5.70021,95.8586 4.5,78.5 Z"/></g>
<g><path style="opacity:0.967" fill="#fefefe" d="M 367.5,78.5 C 413.833,78.5 460.167,78.5 506.5,78.5C 505.3,95.8586 496.633,107.692 480.5,114C 448.214,115.304 415.881,115.971 383.5,116C 380.621,117.666 379.788,120.166 381,123.5C 381.75,124.126 382.584,124.626 383.5,125C 411.839,125.167 440.173,125.667 468.5,126.5C 463.799,139.366 454.799,147.533 441.5,151C 410.167,151.333 378.833,151.667 347.5,152C 342.745,154.51 342.412,157.51 346.5,161C 374.831,161.5 403.165,161.667 431.5,161.5C 428.022,175.144 419.355,183.644 405.5,187C 395.874,188.453 386.207,188.786 376.5,188C 358.737,170.301 337.404,162.968 312.5,166C 303.166,170.159 297.833,177.325 296.5,187.5C 290.872,188.495 285.206,188.829 279.5,188.5C 279.5,175.833 279.5,163.167 279.5,150.5C 288.524,151.236 296.024,148.236 302,141.5C 306.519,132.286 310.853,122.953 315,113.5C 327.324,94.0002 344.824,82.3335 367.5,78.5 Z"/></g>
<g><path style="opacity:0.933" fill="#fefefe" d="M 240.5,88.5 C 250.167,91.1297 259.834,91.1297 269.5,88.5C 270.5,150.496 270.833,212.496 270.5,274.5C 260.5,274.5 250.5,274.5 240.5,274.5C 240.5,212.5 240.5,150.5 240.5,88.5 Z"/></g>
<g><path style="opacity:0.965" fill="#fefefe" d="M 177.5,174.5 C 183.842,174.334 190.175,174.5 196.5,175C 205.83,180.282 207.996,187.782 203,197.5C 201.269,199.617 199.102,201.117 196.5,202C 168.967,202.206 153.301,215.873 149.5,243C 151.475,266.64 164.141,280.306 187.5,284C 232.833,284.333 278.167,284.667 323.5,285C 352.523,292.187 367.856,310.687 369.5,340.5C 368.757,361.994 359.257,378.327 341,389.5C 334.993,380.993 327.826,373.66 319.5,367.5C 339.28,358.321 344.447,343.988 335,324.5C 329.964,318.121 323.464,314.287 315.5,313C 269.5,312.667 223.5,312.333 177.5,312C 145.226,305.393 126.059,285.893 120,253.5C 117.731,211.316 136.897,184.983 177.5,174.5 Z"/></g>
<g><path style="opacity:0.952" fill="#fefefe" d="M 314.5,174.5 C 348.922,173.615 372.755,188.948 386,220.5C 394.758,251.048 387.258,276.715 363.5,297.5C 356.741,289.955 348.741,284.122 339.5,280C 362.86,263.01 367.026,242.176 352,217.5C 341.924,206.691 329.424,201.524 314.5,202C 305.17,196.718 303.004,189.218 308,179.5C 309.965,177.45 312.132,175.783 314.5,174.5 Z"/></g>
<g><path style="opacity:0.952" fill="#fefefe" d="M 149.5,311.5 C 158.547,315.861 167.881,319.361 177.5,322C 171.065,328.979 168.899,337.146 171,346.5C 173.833,357.333 180.667,364.167 191.5,367C 226.518,367.094 261.518,367.761 296.5,369C 324.061,376.905 338.727,395.238 340.5,424C 339.154,451.36 325.487,469.36 299.5,478C 292.897,479.274 286.23,479.774 279.5,479.5C 279.5,470.167 279.5,460.833 279.5,451.5C 299.333,452.833 310.666,443.667 313.5,424C 311.946,409.201 303.946,400.201 289.5,397C 259.816,396.875 230.149,396.209 200.5,395C 187.091,393.815 174.424,390.149 162.5,384C 145.504,371.036 138.671,353.869 142,332.5C 143.03,324.906 145.53,317.906 149.5,311.5 Z"/></g>
<g><path style="opacity:0.907" fill="#fefefe" d="M 240.5,322.5 C 250.5,322.5 260.5,322.5 270.5,322.5C 270.5,334.5 270.5,346.5 270.5,358.5C 260.5,358.5 250.5,358.5 240.5,358.5C 240.5,346.5 240.5,334.5 240.5,322.5 Z"/></g>
<g><path style="opacity:0.948" fill="#fefefe" d="M 175.5,400.5 C 185.432,402.655 195.432,404.489 205.5,406C 195.741,419.792 196.741,432.792 208.5,445C 215.271,450.111 222.938,452.278 231.5,451.5C 231.5,460.833 231.5,470.167 231.5,479.5C 198.645,480.143 178.478,464.477 171,432.5C 169.446,421.342 170.946,410.676 175.5,400.5 Z"/></g>
<g><path style="opacity:0.93" fill="#fefefe" d="M 240.5,406.5 C 250.5,406.5 260.5,406.5 270.5,406.5C 270.5,439.5 270.5,472.5 270.5,505.5C 260.5,505.5 250.5,505.5 240.5,505.5C 240.5,472.5 240.5,439.5 240.5,406.5 Z"/></g>
</svg>
