<?xml version="1.0" encoding="UTF-8"?>
<!DOCTYPE svg PUBLIC "-//W3C//DTD SVG 1.1//EN" "http://www.w3.org/Graphics/SVG/1.1/DTD/svg11.dtd">
<svg xmlns="http://www.w3.org/2000/svg" version="1.1" width="917px" height="933px" style="shape-rendering:geometricPrecision; text-rendering:geometricPrecision; image-rendering:optimizeQuality; fill-rule:evenodd; clip-rule:evenodd" xmlns:xlink="http://www.w3.org/1999/xlink">
<g><path style="opacity:0.148" fill="#f0f0f0" d="M 565.5,484.5 C 585.421,444.911 601.921,403.911 615,361.5C 624.777,327.505 629.111,292.838 628,257.5C 619.81,183.335 581.31,132.169 512.5,104C 450.94,82.0212 393.607,90.0212 340.5,128C 316.778,147.208 298.112,170.375 284.5,197.5C 286.171,191.158 288.671,185.158 292,179.5C 301.667,161.269 314.167,145.102 329.5,131C 350.868,116.428 373.868,105.095 398.5,97C 426.193,88.755 454.193,87.4217 482.5,93C 502.034,97.2214 520.701,103.555 538.5,112C 610.3,158.988 640.134,225.488 628,311.5C 617.405,370.621 598.072,426.621 570,479.5C 568.951,481.618 567.451,483.284 565.5,484.5 Z"/></g>
<g><path style="opacity:0.842" fill="#181818" d="M 565.5,484.5 C 562.331,488.833 559.664,493.5 557.5,498.5C 556.711,498.783 556.044,499.283 555.5,500C 562.014,500.82 568.347,500.653 574.5,499.5C 576.5,499.5 578.5,499.5 580.5,499.5C 581.263,500.268 582.263,500.768 583.5,501C 602.83,501.5 622.164,501.667 641.5,501.5C 642.167,501.833 642.833,502.167 643.5,502.5C 708.557,586.888 773.224,671.554 837.5,756.5C 839.016,759.533 841.016,762.2 843.5,764.5C 843.738,766.404 844.738,767.738 846.5,768.5C 846.738,770.404 847.738,771.738 849.5,772.5C 849.427,774.027 850.094,775.027 851.5,775.5C 855.56,780.01 858.894,785.01 861.5,790.5C 859.575,793.172 856.908,794.172 853.5,793.5C 817.167,793.5 780.833,793.5 744.5,793.5C 744.5,792.5 744.5,791.5 744.5,790.5C 756.833,790.5 769.167,790.5 781.5,790.5C 806.915,790.55 831.582,789.884 855.5,788.5C 809.743,727.987 763.743,667.653 717.5,607.5C 715.975,604.437 713.975,601.77 711.5,599.5C 688.55,568.71 665.383,538.043 642,507.5C 640.89,505.963 639.39,505.297 637.5,505.5C 615.5,504.167 593.5,504.167 571.5,505.5C 565.132,505.17 558.798,505.504 552.5,506.5C 549.821,511.194 547.155,515.861 544.5,520.5C 542.914,522.67 541.58,525.004 540.5,527.5C 515.068,568.114 485.401,605.614 451.5,640C 449.833,640.667 448.167,640.667 446.5,640C 440.27,633.938 434.27,627.771 428.5,621.5C 405.605,594.951 384.272,567.284 364.5,538.5C 358.178,527.861 351.845,517.194 345.5,506.5C 316.178,504.105 286.845,503.939 257.5,506C 194.233,588.093 131.567,670.593 69.5,753.5C 66.8154,756.19 64.4821,759.19 62.5,762.5C 56.4054,770.351 50.072,778.018 43.5,785.5C 43.1667,785.5 42.8333,785.5 42.5,785.5C 41.609,784.89 40.609,784.557 39.5,784.5C 110.733,689.598 182.733,595.264 255.5,501.5C 273.836,501.667 292.17,501.5 310.5,501C 312.708,500.809 314.708,500.309 316.5,499.5C 324.84,499.666 333.173,499.5 341.5,499C 304.554,435.498 280.72,367.332 270,294.5C 269.5,281.504 269.333,268.504 269.5,255.5C 269.646,251.481 269.979,247.481 270.5,243.5C 271.768,241.095 272.435,238.428 272.5,235.5C 272.448,233.097 272.781,230.764 273.5,228.5C 275.074,226.898 275.741,224.898 275.5,222.5C 275.366,220.708 275.699,219.042 276.5,217.5C 277.931,216.22 278.598,214.553 278.5,212.5C 278.433,211.041 278.766,209.708 279.5,208.5C 281.293,206.574 282.293,204.241 282.5,201.5C 283.674,200.486 284.34,199.153 284.5,197.5C 298.112,170.375 316.778,147.208 340.5,128C 393.607,90.0212 450.94,82.0212 512.5,104C 581.31,132.169 619.81,183.335 628,257.5C 629.111,292.838 624.777,327.505 615,361.5C 601.921,403.911 585.421,444.911 565.5,484.5 Z"/></g>
<g><path style="opacity:1" fill="#e8f0ee" d="M 425.5,97.5 C 508.304,92.3029 569.138,125.97 608,198.5C 621.814,230.486 626.814,263.82 623,298.5C 602.001,411.476 555.001,511.809 482,599.5C 471.732,611.771 460.732,623.437 449,634.5C 361.889,545.641 305.056,439.974 278.5,317.5C 262.693,232.003 291.026,165.836 363.5,119C 383.203,108.629 403.869,101.462 425.5,97.5 Z"/></g>
<g><path style="opacity:1" fill="#20c698" d="M 575.5,433.5 C 574.35,429.001 571.684,427.668 567.5,429.5C 566.833,428.167 566.167,426.833 565.5,425.5C 564.402,427.632 563.402,429.798 562.5,432C 564.002,432.583 565.335,433.416 566.5,434.5C 566.64,436.256 566.14,437.922 565,439.5C 564.249,436.951 562.582,435.284 560,434.5C 557.922,432.319 558.089,430.319 560.5,428.5C 559.064,424.864 557.397,424.697 555.5,428C 550.802,428.121 550.468,426.454 554.5,423C 551.755,420.275 550.755,420.275 551.5,423C 548.963,425.195 547.963,428.028 548.5,431.5C 546.011,431.702 543.677,431.202 541.5,430C 542.5,429.667 543.5,429.333 544.5,429C 543.139,427.416 542.472,425.582 542.5,423.5C 546.339,423.388 546.339,422.721 542.5,421.5C 541.032,423.532 539.365,423.365 537.5,421C 532.549,420.81 532.715,421.643 538,423.5C 538.18,425.488 538.014,427.488 537.5,429.5C 528.785,431.435 526.118,428.102 529.5,419.5C 531.657,418.21 533.99,417.376 536.5,417C 534.432,416.313 532.432,416.48 530.5,417.5C 530.163,415.575 528.83,414.075 526.5,413C 527.333,411.5 528.5,410.333 530,409.5C 531.667,411.167 533.333,412.833 535,414.5C 536.23,413.725 536.563,412.725 536,411.5C 534.795,410.929 533.628,410.262 532.5,409.5C 532.64,407.744 532.14,406.078 531,404.5C 529.691,406.976 527.858,408.976 525.5,410.5C 523.088,409.423 520.754,408.256 518.5,407C 519.833,406 521.167,405 522.5,404C 523.744,403.544 524.577,404.044 525,405.5C 525.5,405 526,404.5 526.5,404C 525.095,402.731 523.429,402.231 521.5,402.5C 573.427,369.321 597.927,321.654 595,259.5C 591.695,228.902 580.195,201.902 560.5,178.5C 561.246,177.264 561.579,175.93 561.5,174.5C 554.979,174.802 551.479,171.802 551,165.5C 553.287,162.928 554.453,159.928 554.5,156.5C 553.167,156.5 551.833,156.5 550.5,156.5C 551.076,160.122 550.076,163.122 547.5,165.5C 500.717,126.685 448.717,117.851 391.5,139C 353.037,156.128 326.204,184.295 311,223.5C 307.09,224.24 305.256,226.573 305.5,230.5C 306.675,230.281 307.675,230.614 308.5,231.5C 292.825,292.63 308.158,344.464 354.5,387C 356.667,388.5 358.833,390 361,391.5C 361.595,392.899 361.428,394.232 360.5,395.5C 363.255,395.612 365.922,396.112 368.5,397C 397.79,416.512 430.457,424.346 466.5,420.5C 471.316,421.326 476.316,421.826 481.5,422C 475.419,423.364 469.419,424.864 463.5,426.5C 468.747,428.416 474.08,430.25 479.5,432C 477.376,433.122 475.543,434.622 474,436.5C 470.293,433.525 468.126,434.025 467.5,438C 465.913,438.862 464.246,439.529 462.5,440C 465.994,441.75 466.161,443.584 463,445.5C 462.667,445.167 462.333,444.833 462,444.5C 460.902,445.967 459.402,446.801 457.5,447C 457.833,447.333 458.167,447.667 458.5,448C 454.763,453.459 451.096,453.625 447.5,448.5C 446.402,449.615 445.235,449.615 444,448.5C 443.055,448.905 442.388,449.572 442,450.5C 441.252,448.668 440.252,447.001 439,445.5C 438.131,448.33 436.964,450.997 435.5,453.5C 433.929,451.655 433.095,449.655 433,447.5C 428.167,452.333 423.333,457.167 418.5,462C 419.5,463 420.5,464 421.5,465C 418.256,465.97 415.09,467.137 412,468.5C 410.832,467.491 409.665,466.491 408.5,465.5C 405.249,470.666 405.915,475.166 410.5,479C 407.621,479.957 405.121,479.457 403,477.5C 402.333,478.167 401.667,478.833 401,479.5C 400.107,478.289 399.274,478.289 398.5,479.5C 400.829,480.998 402.663,482.998 404,485.5C 404.018,487.797 403.851,490.131 403.5,492.5C 401.071,492.585 399.071,493.585 397.5,495.5C 393.554,491.58 393.887,487.746 398.5,484C 396.635,482.699 394.635,482.365 392.5,483C 391.449,484.385 390.116,485.385 388.5,486C 389.793,486.49 391.127,486.657 392.5,486.5C 392.5,488.5 392.5,490.5 392.5,492.5C 389.813,492.664 387.146,492.497 384.5,492C 383.21,486.802 379.71,483.302 374,481.5C 367.903,484.988 367.069,489.488 371.5,495C 370.725,496.23 369.725,496.563 368.5,496C 366.53,493.684 364.196,491.851 361.5,490.5C 359.476,492.358 357.309,494.025 355,495.5C 354.517,496.448 354.351,497.448 354.5,498.5C 353.14,496.954 352.14,495.12 351.5,493C 352.856,491.433 353.523,489.6 353.5,487.5C 351.396,487.799 349.396,487.466 347.5,486.5C 315.061,429.354 293.228,368.354 282,303.5C 272.621,228.117 299.121,169.284 361.5,127C 410.388,99.7829 461.054,96.1163 513.5,116C 566.136,139.644 599.636,179.478 614,235.5C 617.168,253.376 618.168,271.376 617,289.5C 614.883,310.206 611.05,330.539 605.5,350.5C 603.456,349.02 602.122,349.52 601.5,352C 602.454,353.908 603.121,355.908 603.5,358C 597.718,380.514 590.051,402.348 580.5,423.5C 576.625,423.705 574.959,425.705 575.5,429.5C 579.165,430.293 579.165,431.626 575.5,433.5 Z"/></g>
<g><path style="opacity:1" fill="#b3f1e8" d="M 457.5,111.5 C 461.102,111.678 461.102,112.678 457.5,114.5C 456.438,113.575 456.438,112.575 457.5,111.5 Z"/></g>
<g><path style="opacity:1" fill="#e8f0ef" d="M 521.5,402.5 C 504.09,411.303 485.757,417.303 466.5,420.5C 430.457,424.346 397.79,416.512 368.5,397C 365.922,396.112 363.255,395.612 360.5,395.5C 361.428,394.232 361.595,392.899 361,391.5C 358.833,390 356.667,388.5 354.5,387C 308.158,344.464 292.825,292.63 308.5,231.5C 307.675,230.614 306.675,230.281 305.5,230.5C 305.256,226.573 307.09,224.24 311,223.5C 326.204,184.295 353.037,156.128 391.5,139C 448.717,117.851 500.717,126.685 547.5,165.5C 550.076,163.122 551.076,160.122 550.5,156.5C 551.833,156.5 553.167,156.5 554.5,156.5C 554.453,159.928 553.287,162.928 551,165.5C 551.479,171.802 554.979,174.802 561.5,174.5C 561.579,175.93 561.246,177.264 560.5,178.5C 580.195,201.902 591.695,228.902 595,259.5C 597.927,321.654 573.427,369.321 521.5,402.5 Z"/></g>
<g><path style="opacity:1" fill="#141414" d="M 430.5,133.5 C 489.757,130.214 535.923,152.88 569,201.5C 591.927,243.513 594.594,286.846 577,331.5C 546.368,390.746 497.535,418.246 430.5,414C 370.282,402.779 331.115,367.946 313,309.5C 299.646,240.734 322.48,187.901 381.5,151C 397.202,143.046 413.535,137.213 430.5,133.5 Z"/></g>
<g><path style="opacity:1" fill="#e4f3f4" d="M 538.5,139.5 C 540.048,139.821 540.715,140.821 540.5,142.5C 537.752,142.598 537.086,141.598 538.5,139.5 Z"/></g>
<g><path style="opacity:1" fill="#fafafa" d="M 434.5,140.5 C 492.167,138.575 536.001,161.908 566,210.5C 590.405,262.119 586.072,311.119 553,357.5C 514.404,400.365 466.904,415.198 410.5,402C 345.139,377.148 313.972,329.648 317,259.5C 324.914,206.257 353.747,169.423 403.5,149C 413.93,145.979 424.263,143.146 434.5,140.5 Z"/></g>
<g><path style="opacity:1" fill="#151111" d="M 403.5,193.5 C 417.648,192.206 430.648,195.373 442.5,203C 468.333,228.833 494.167,254.667 520,280.5C 530.148,297.274 531.148,314.608 523,332.5C 505.799,355.175 484.299,360.341 458.5,348C 431.361,321.862 404.528,295.362 378,268.5C 359.856,234.431 368.356,209.431 403.5,193.5 Z"/></g>
<g><path style="opacity:0.176" fill="#e4e4e4" d="M 284.5,197.5 C 284.34,199.153 283.674,200.486 282.5,201.5C 282.229,199.62 282.896,198.287 284.5,197.5 Z"/></g>
<g><path style="opacity:1" fill="#912d39" d="M 426.5,201.5 C 417.83,200.211 409.163,200.211 400.5,201.5C 408.508,198.043 416.842,197.543 425.5,200C 426.056,200.383 426.389,200.883 426.5,201.5 Z"/></g>
<g><path style="opacity:1" fill="#fa3e53" d="M 426.5,201.5 C 431.15,202.579 435.483,204.413 439.5,207C 451.713,218.712 463.38,230.878 474.5,243.5C 466.179,253.488 457.179,262.821 447.5,271.5C 443.842,270.68 441.509,272.013 440.5,275.5C 438.509,276.82 436.509,278.154 434.5,279.5C 434.709,280.086 435.043,280.586 435.5,281C 432.307,282.026 430.974,284.192 431.5,287.5C 427.458,292.709 422.624,297.042 417,300.5C 405.667,289.167 394.333,277.833 383,266.5C 380.628,263.09 378.795,259.423 377.5,255.5C 376.944,248.653 376.277,241.82 375.5,235C 375.799,231.77 377.132,229.103 379.5,227C 379.043,226.586 378.709,226.086 378.5,225.5C 379.833,224.833 381.167,224.167 382.5,223.5C 380.255,221.433 379.921,219.1 381.5,216.5C 385.79,208.873 392.123,203.873 400.5,201.5C 409.163,200.211 417.83,200.211 426.5,201.5 Z"/></g>
<g><path style="opacity:0.  114" fill="#f0f0f0" d="M 282.5,201.5 C 282.293,204.241 281.293,206.574 279.5,208.5C 279.707,205.759 280.707,203.426 282.5,201.5 Z"/></g>
<g><path style="opacity:0.102" fill="#eeeeee" d="M 278.5,212.5 C 278.598,214.553 277.931,216.22 276.5,217.5C 276.402,215.447 277.069,213.78 278.5,212.5 Z"/></g>
<g><path style="opacity:0.298" fill="#b3b3b3" d="M 275.5,222.5 C 275.741,224.898 275.074,226.898 273.5,228.5C 273.259,226.102 273.926,224.102 275.5,222.5 Z"/></g>
<g><path style="opacity:1" fill="#d03b4e" d="M 381.5,216.5 C 379.921,219.1 380.255,221.433 382.5,223.5C 381.167,224.167 379.833,224.833 378.5,225.5C 378.709,226.086 379.043,226.586 379.5,227C 377.132,229.103 375.799,231.77 375.5,235C 376.277,241.82 376.944,248.653 377.5,255.5C 375.69,252.855 374.69,249.855 374.5,246.5C 374.36,240.464 374.693,234.464 375.5,228.5C 375.42,223.379 377.42,219.379 381.5,216.5 Z"/></g>
<g><path style="opacity:1" fill="#7f212e" d="M 375.5,228.5 C 374.693,234.464 374.36,240.464 374.5,246.5C 373.836,244.19 373.503,241.69 373.5,239C 373.304,235.195 373.97,231.695 375.5,228.5 Z"/></g>
<g><path style="opacity:0.204" fill="#bebebe" d="M 272.5,235.5 C 272.435,238.428 271.768,241.095 270.5,243.5C 270.111,240.447 270.777,237.78 272.5,235.5 Z"/></g>
<g><path style="opacity:1" fill="#f9f9f9" d="M 477.5,248.5 C 478.873,248.343 480.207,248.51 481.5,249C 492.333,259.833 503.167,270.667 514,281.5C 525.621,297.715 526.621,314.715 517,332.5C 501.014,351.067 482.181,354.567 460.5,343C 447.154,330.988 434.488,318.321 422.5,305C 440.661,286.006 458.994,267.173 477.5,248.5 Z"/></g>
<g><path style="opacity:1" fill="#c7f4ee" d="M 283.5,271.5 C 286.957,271.667 287.29,272.667 284.5,274.5C 283.614,273.675 283.281,272.675 283.5,271.5 Z"/></g>
<g><path style="opacity:1" fill="#cc394b" d="M 447.5,271.5 C 442.5,277.167 437.167,282.5 431.5,287.5C 430.974,284.192 432.307,282.026 435.5,281C 435.043,280.586 434.709,280.086 434.5,279.5C 436.509,278.154 438.509,276.82 440.5,275.5C 441.509,272.013 443.842,270.68 447.5,271.5 Z"/></g>
<g><path style="opacity:1" fill="#86e3ce" d="M 606.5,286.5 C 608.167,286.5 609.833,286.5 611.5,286.5C 611.5,287.833 611.5,289.167 611.5,290.5C 609.833,290.5 608.167,290.5 606.5,290.5C 606.5,289.167 606.5,287.833 606.5,286.5 Z"/></g>
<g><path style="opacity:0.242" fill="#f5f5f5" d="M 269.5,255.5 C 269.333,268.504 269.5,281.504 270,294.5C 280.72,367.332 304.554,435.498 341.5,499C 333.173,499.5 324.84,499.666 316.5,499.5C 295.986,499.484 275.652,500.151 255.5,501.5C 182.733,595.264 110.733,689.598 39.5,784.5C 38.343,786.138 37.1764,787.804 36,789.5C 35.235,791.066 35.4017,792.399 36.5,793.5C 291.999,794.5 547.666,794.833 803.5,794.5C 790.647,795.202 777.647,795.869 764.5,796.5C 541.318,796.118 318.318,796.118 95.5,796.5C 75.5137,795.714 55.5137,795.214 35.5,795C 34.1059,794.044 33.4393,792.711 33.5,791C 34.0767,788.863 34.41,786.696 34.5,784.5C 35.5,784.5 36.5,784.5 37.5,784.5C 38.1109,781.279 39.2776,778.279 41,775.5C 62.4955,747.215 84.4955,719.215 107,691.5C 145.402,637.745 185.402,585.079 227,533.5C 234.398,522.1 242.565,511.267 251.5,501C 257.87,498.192 264.537,496.525 271.5,496C 286.831,496.106 302.164,496.106 317.5,496C 321.416,494.898 325.416,494.231 329.5,494C 331.966,490.994 332.133,487.827 330,484.5C 308.77,443.781 292.103,401.447 280,357.5C 275.591,338.637 271.925,319.637 269,300.5C 266.875,285.316 267.041,270.316 269.5,255.5 Z"/></g>
<g><path style="opacity:1" fill="#c0f6ee" d="M 591.5,341.5 C 593.926,342.353 594.76,344.019 594,346.5C 592.628,345.09 591.795,343.423 591.5,341.5 Z"/></g>
<g><path style="opacity:1" fill="#c1f7ef" d="M 591.5,374.5 C 592.586,374.62 593.253,375.287 593.5,376.5C 593.167,377.167 592.833,377.833 592.5,378.5C 591.571,377.311 591.238,375.978 591.5,374.5 Z"/></g>
<g><path style="opacity:1" fill="#d0f6f1" d="M 309.5,383.5 C 311.035,382.212 312.701,382.212 314.5,383.5C 312.833,384.666 311.166,384.666 309.5,383.5 Z"/></g>
<g><path style="opacity:1" fill="#daf7f4" d="M 564.5,400.5 C 567.084,402.419 566.75,404.086 563.5,405.5C 562.799,403.808 563.133,402.142 564.5,400.5 Z"/></g>
<g><path style="opacity:1" fill="#18c697" d="M 521.5,402.5 C 523.429,402.231 525.095,402.731 526.5,404C 526,404.5 525.5,405 525,405.5C 524.577,404.044 523.744,403.544 522.5,404C 521.167,405 519.833,406 518.5,407C 520.754,408.256 523.088,409.423 525.5,410.5C 527.858,408.976 529.691,406.976 531,404.5C 532.14,406.078 532.64,407.744 532.5,409.5C 533.628,410.262 534.795,410.929 536,411.5C 536.563,412.725 536.23,413.725 535,414.5C 533.333,412.833 531.667,411.167 530,409.5C 528.5,410.333 527.333,411.5 526.5,413C 528.83,414.075 530.163,415.575 530.5,417.5C 532.432,416.48 534.432,416.313 536.5,417C 533.99,417.376 531.657,418.21 529.5,419.5C 526.118,428.102 528.785,431.435 537.5,429.5C 538.014,427.488 538.18,425.488 538,423.5C 532.715,421.643 532.549,420.81 537.5,421C 539.365,423.365 541.032,423.532 542.5,421.5C 546.339,422.721 546.339,423.388 542.5,423.5C 542.472,425.582 543.139,427.416 544.5,429C 543.5,429.333 542.5,429.667 541.5,430C 543.677,431.202 546.011,431.702 548.5,431.5C 547.963,428.028 548.963,425.195 551.5,423C 550.755,420.275 551.755,420.275 554.5,423C 550.468,426.454 550.802,428.121 555.5,428C 557.397,424.697 559.064,424.864 560.5,428.5C 558.089,430.319 557.922,432.319 560,434.5C 562.582,435.284 564.249,436.951 565,439.5C 566.14,437.922 566.64,436.256 566.5,434.5C 565.335,433.416 564.002,432.583 562.5,432C 563.402,429.798 564.402,427.632 565.5,425.5C 566.167,426.833 566.833,428.167 567.5,429.5C 571.684,427.668 574.35,429.001 575.5,433.5C 569.723,450.059 562.557,466.059 554,481.5C 528.511,529.058 497.511,573.058 461,613.5C 456.985,617.682 452.818,621.682 448.5,625.5C 411.06,587.59 379.727,545.257 354.5,498.5C 354.351,497.448 354.517,496.448 355,495.5C 357.309,494.025 359.476,492.358 361.5,490.5C 364.196,491.851 366.53,493.684 368.5,496C 369.725,496.563 370.725,496.23 371.5,495C 367.069,489.488 367.903,484.988 374,481.5C 379.71,483.302 383.21,486.802 384.5,492C 387.146,492.497 389.813,492.664 392.5,492.5C 392.5,490.5 392.5,488.5 392.5,486.5C 391.127,486.657 389.793,486.49 388.5,486C 390.116,485.385 391.449,484.385 392.5,483C 394.635,482.365 396.635,482.699 398.5,484C 393.887,487.746 393.554,491.58 397.5,495.5C 399.071,493.585 401.071,492.585 403.5,492.5C 403.851,490.131 404.018,487.797 404,485.5C 402.663,482.998 400.829,480.998 398.5,479.5C 399.274,478.289 400.107,478.289 401,479.5C 401.667,478.833 402.333,478.167 403,477.5C 405.121,479.457 407.621,479.957 410.5,479C 405.915,475.166 405.249,470.666 408.5,465.5C 409.665,466.491 410.832,467.491 412,468.5C 415.09,467.137 418.256,465.97 421.5,465C 420.5,464 419.5,463 418.5,462C 423.333,457.167 428.167,452.333 433,447.5C 433.095,449.655 433.929,451.655 435.5,453.5C 436.964,450.997 438.131,448.33 439,445.5C 440.252,447.001 441.252,448.668 442,450.5C 442.388,449.572 443.055,448.905 444,448.5C 445.235,449.615 446.402,449.615 447.5,448.5C 451.096,453.625 454.763,453.459 458.5,448C 458.167,447.667 457.833,447.333 457.5,447C 459.402,446.801 460.902,445.967 462,444.5C 462.333,444.833 462.667,445.167 463,445.5C 466.161,443.584 465.994,441.75 462.5,440C 464.246,439.529 465.913,438.862 467.5,438C 468.126,434.025 470.293,433.525 474,436.5C 475.543,434.622 477.376,433.122 479.5,432C 474.08,430.25 468.747,428.416 463.5,426.5C 469.419,424.864 475.419,423.364 481.5,422C 476.316,421.826 471.316,421.326 466.5,420.5C 485.757,417.303 504.09,411.303 521.5,402.5 Z"/></g>
<g><path style="opacity:1" fill="#d2f9f5" d="M 422.5,444.5 C 424.429,444.231 426.095,444.731 427.5,446C 426.667,446.167 425.833,446.333 425,446.5C 423.624,446.316 422.791,445.649 422.5,444.5 Z"/></g>
<g><path style="opacity:1" fill="#a4ede2" d="M 486.5,445.5 C 488.185,444.156 489.852,444.323 491.5,446C 489.735,446.64 488.068,446.473 486.5,445.5 Z"/></g>
<g><path style="opacity:1" fill="#cffaf5" d="M 435.5,459.5 C 440,457.837 441.5,459.503 440,464.5C 439.004,462.34 437.504,460.673 435.5,459.5 Z"/></g>
<g><path style="opacity:0.251" fill="#f6f6f6" d="M 565.5,484.5 C 565.703,486.39 565.037,487.89 563.5,489C 564.833,491.333 566.167,493.667 567.5,496C 578.367,496.2 589.2,496.7 600,497.5C 606.654,497.272 613.321,496.938 620,496.5C 625.492,497.083 630.992,497.583 636.5,498C 638.066,498.608 639.4,499.442 640.5,500.5C 620.491,500.57 600.491,500.236 580.5,499.5C 578.5,499.5 576.5,499.5 574.5,499.5C 568.642,499.822 562.975,499.489 557.5,498.5C 559.664,493.5 562.331,488.833 565.5,484.5 Z"/></g>
<g><path style="opacity:0.654" fill="#535353" d="M 557.5,498.5 C 562.975,499.489 568.642,499.822 574.5,499.5C 568.347,500.653 562.014,500.82 555.5,500C 556.044,499.283 556.711,498.783 557.5,498.5 Z"/></g>
<g><path style="opacity:0.861" fill="#5f5f5f" d="M 316.5,499.5 C 314.708,500.309 312.708,500.809 310.5,501C 292.17,501.5 273.836,501.667 255.5,501.5C 275.652,500.151 295.986,499.484 316.5,499.5 Z"/></g>
<g><path style="opacity:0.668" fill="#575757" d="M 580.5,499.5 C 600.491,500.236 620.491,500.57 640.5,500.5C 641.167,500.5 641.5,500.833 641.5,501.5C 622.164,501.667 602.83,501.5 583.5,501C 582.263,500.768 581.263,500.268 580.5,499.5 Z"/></g>
<g><path style="opacity:0.996" fill="#fafafa" d="M 364.5,538.5 C 334.165,538.095 303.831,537.928 273.5,538C 259.182,540.328 248.016,547.495 240,559.5C 236.828,569.51 232.828,579.176 228,588.5C 227.502,591.482 227.335,594.482 227.5,597.5C 233.842,597.334 240.175,597.5 246.5,598C 251.147,600.634 255.813,603.301 260.5,606C 262.041,607.579 263.208,609.413 264,611.5C 264.176,617.429 264.342,623.262 264.5,629C 269.891,629.692 275.225,629.359 280.5,628C 286.911,623.466 293.578,619.466 300.5,616C 312.045,615.681 323.545,614.848 335,613.5C 340.032,613.246 344.865,614.079 349.5,616C 371.881,631.782 396.548,637.615 423.5,633.5C 425.192,629.4 426.859,625.4 428.5,621.5C 434.27,627.771 440.27,633.938 446.5,640C 448.167,640.667 449.833,640.667 451.5,640C 485.401,605.614 515.068,568.114 540.5,527.5C 544.473,534.806 550.806,538.306 559.5,538C 560.984,538.662 562.317,539.496 563.5,540.5C 564.262,542.262 565.596,543.262 567.5,543.5C 568.946,544.613 570.613,544.78 572.5,544C 579.843,538 587.51,532.5 595.5,527.5C 596.822,527.67 597.989,527.337 599,526.5C 599.497,523.854 599.664,521.187 599.5,518.5C 587.322,518.172 575.322,518.505 563.5,519.5C 557.19,520.19 550.857,520.524 544.5,520.5C 547.155,515.861 549.821,511.194 552.5,506.5C 558.798,505.504 565.132,505.17 571.5,505.5C 586.5,505.5 601.5,505.5 616.5,505.5C 617.909,515.845 617.742,526.179 616,536.5C 613.33,546.503 607.163,553.336 597.5,557C 585.256,560.049 572.923,562.716 560.5,565C 551.277,567.558 544.444,573.058 540,581.5C 538.333,586.5 536.667,591.5 535,596.5C 513.427,626.879 483.927,643.713 446.5,647C 419.868,648.999 393.201,650.332 366.5,651C 354.817,652.241 343.15,653.574 331.5,655C 317.471,655.183 303.471,655.849 289.5,657C 281.607,661.56 274.273,666.893 267.5,673C 260.505,678.166 253.172,682.833 245.5,687C 226.149,695.451 206.482,703.118 186.5,710C 169.167,719.333 151.833,728.667 134.5,738C 113.721,746.984 92.0545,752.15 69.5,753.5C 131.567,670.593 194.233,588.093 257.5,506C 286.845,503.939 316.178,504.105 345.5,506.5C 351.845,517.194 358.178,527.861 364.5,538.5 Z"/></g>
<g><path style="opacity:1" fill="#b19493" d="M 571.5,505.5 C 593.5,504.167 615.5,504.167 637.5,505.5C 633.167,505.5 628.833,505.5 624.5,505.5C 624.666,514.839 624.5,524.173 624,533.5C 622.082,547.172 614.916,557.005 602.5,563C 589.358,566.83 576.025,569.83 562.5,572C 556.548,573.952 551.715,577.452 548,582.5C 545.49,591.372 541.823,599.706 537,607.5C 530.833,615 524,621.833 516.5,628C 527.684,630.397 538.684,629.731 549.5,626C 556.324,620.755 563.324,615.755 570.5,611C 602.139,601.024 633.806,601.024 665.5,611C 677.162,612.39 688.495,611.056 699.5,607C 704.07,605.226 708.07,602.726 711.5,599.5C 713.975,601.77 715.975,604.437 717.5,607.5C 708.514,611.551 699.181,614.718 689.5,617C 673.467,619.912 657.8,618.578 642.5,613C 618.755,608.218 595.421,609.885 572.5,618C 566.877,621.955 561.543,626.288 556.5,631C 547.49,635.269 537.99,637.102 528,636.5C 520.747,636.425 513.58,635.925 506.5,635C 492.562,643.425 477.562,649.091 461.5,652C 405.12,655.454 348.786,659.454 292.5,664C 290.051,664.725 287.717,665.725 285.5,667C 271.046,680.403 254.713,691.07 236.5,699C 218.756,705.47 201.089,712.137 183.5,719C 167.994,727.92 152.328,736.587 136.5,745C 112.651,754.296 87.9839,760.129 62.5,762.5C 64.4821,759.19 66.8154,756.19 69.5,753.5C 92.0545,752.15 113.721,746.984 134.5,738C 151.833,728.667 169.167,719.333 186.5,710C 206.482,703.118 226.149,695.451 245.5,687C 253.172,682.833 260.505,678.166 267.5,673C 274.273,666.893 281.607,661.56 289.5,657C 303.471,655.849 317.471,655.183 331.5,655C 343.15,653.574 354.817,652.241 366.5,651C 393.201,650.332 419.868,648.999 446.5,647C 483.927,643.713 513.427,626.879 535,596.5C 536.667,591.5 538.333,586.5 540,581.5C 544.444,573.058 551.277,567.558 560.5,565C 572.923,562.716 585.256,560.049 597.5,557C 607.163,553.336 613.33,546.503 616,536.5C 617.742,526.179 617.909,515.845 616.5,505.5C 601.5,505.5 586.5,505.5 571.5,505.5 Z"/></g>
<g><path style="opacity:0.999" fill="#fbfbfb" d="M 637.5,505.5 C 639.39,505.297 640.89,505.963 642,507.5C 665.383,538.043 688.55,568.71 711.5,599.5C 708.07,602.726 704.07,605.226 699.5,607C 688.495,611.056 677.162,612.39 665.5,611C 633.806,601.024 602.139,601.024 570.5,611C 563.324,615.755 556.324,620.755 549.5,626C 538.684,629.731 527.684,630.397 516.5,628C 524,621.833 530.833,615 537,607.5C 541.823,599.706 545.49,591.372 548,582.5C 551.715,577.452 556.548,573.952 562.5,572C 576.025,569.83 589.358,566.83 602.5,563C 614.916,557.005 622.082,547.172 624,533.5C 624.5,524.173 624.666,514.839 624.5,505.5C 628.833,505.5 633.167,505.5 637.5,505.5 Z"/></g>
<g><path style="opacity:1" fill="#ace9d4" d="M 563.5,519.5 C 575.322,518.505 587.322,518.172 599.5,518.5C 599.664,521.187 599.497,523.854 599,526.5C 597.989,527.337 596.822,527.67 595.5,527.5C 597.051,525.087 597.717,522.421 597.5,519.5C 586.167,519.5 574.833,519.5 563.5,519.5 Z"/></g>
<g><path style="opacity:1" fill="#60d6ac" d="M 563.5,519.5 C 574.833,519.5 586.167,519.5 597.5,519.5C 597.717,522.421 597.051,525.087 595.5,527.5C 587.51,532.5 579.843,538 572.5,544C 570.613,544.78 568.946,544.613 567.5,543.5C 571.288,539.211 575.288,535.044 579.5,531C 579.355,530.228 579.022,529.561 578.5,529C 575.289,527.847 571.956,527.18 568.5,527C 568.833,526.667 569.167,526.333 569.5,526C 576.876,525.747 584.209,525.081 591.5,524C 590.366,522.984 590.699,522.317 592.5,522C 579.157,520.133 565.823,520.466 552.5,523C 555.672,523.32 558.005,524.82 559.5,527.5C 559.032,529.134 558.032,530.3 556.5,531C 557.26,534.667 558.76,535.167 561,532.5C 562.731,534.862 563.565,537.529 563.5,540.5C 562.317,539.496 560.984,538.662 559.5,538C 550.806,538.306 544.473,534.806 540.5,527.5C 541.58,525.004 542.914,522.67 544.5,520.5C 550.857,520.524 557.19,520.19 563.5,519.5 Z"/></g>
<g><path style="opacity:1" fill="#4ad6a5" d="M 567.5,543.5 C 565.596,543.262 564.262,542.262 563.5,540.5C 563.565,537.529 562.731,534.862 561,532.5C 558.76,535.167 557.26,534.667 556.5,531C 558.032,530.3 559.032,529.134 559.5,527.5C 558.005,524.82 555.672,523.32 552.5,523C 565.823,520.466 579.157,520.133 592.5,522C 590.699,522.317 590.366,522.984 591.5,524C 584.209,525.081 576.876,525.747 569.5,526C 569.167,526.333 568.833,526.667 568.5,527C 571.956,527.18 575.289,527.847 578.5,529C 579.022,529.561 579.355,530.228 579.5,531C 575.288,535.044 571.288,539.211 567.5,543.5 Z"/></g>
<g><path style="opacity:1" fill="#51d5a7" d="M 647.5,578.5 C 639.648,578.825 631.982,578.492 624.5,577.5C 624.402,573.75 625.569,570.417 628,567.5C 634.374,560.794 640.374,553.794 646,546.5C 647.916,543.102 648.916,539.435 649,535.5C 653.749,533.861 657.416,535.194 660,539.5C 660.797,545.769 660.297,551.936 658.5,558C 660.674,563.168 662.674,568.334 664.5,573.5C 664.449,575.1 664.116,576.6 663.5,578C 658.177,578.499 652.844,578.666 647.5,578.5 Z"/></g>
<g><path style="opacity:1" fill="#4ed5a5" d="M 364.5,538.5 C 384.272,567.284 405.605,594.951 428.5,621.5C 426.859,625.4 425.192,629.4 423.5,633.5C 396.548,637.615 371.881,631.782 349.5,616C 344.865,614.079 340.032,613.246 335,613.5C 323.545,614.848 312.045,615.681 300.5,616C 293.578,619.466 286.911,623.466 280.5,628C 275.225,629.359 269.891,629.692 264.5,629C 264.342,623.262 264.176,617.429 264,611.5C 263.208,609.413 262.041,607.579 260.5,606C 255.813,603.301 251.147,600.634 246.5,598C 240.175,597.5 233.842,597.334 227.5,597.5C 227.335,594.482 227.502,591.482 228,588.5C 232.828,579.176 236.828,569.51 240,559.5C 248.016,547.495 259.182,540.328 273.5,538C 303.831,537.928 334.165,538.095 364.5,538.5 Z"/></g>
<g><path style="opacity:1" fill="#ddf5f5" d="M 399.5,544.5 C 400.675,544.281 401.675,544.614 402.5,545.5C 400.948,546.798 399.948,546.465 399.5,544.5 Z"/></g>
<g><path style="opacity:1" fill="#def6f7" d="M 449.5,551.5 C 455.798,554.022 455.798,555.689 449.5,556.5C 449.5,554.833 449.5,553.167 449.5,551.5 Z"/></g>
<g><path style="opacity:1" fill="#c1f6ef" d="M 413.5,554.5 C 414.675,554.281 415.675,554.614 416.5,555.5C 414.926,556.631 413.259,556.798 411.5,556C 412.416,555.722 413.082,555.222 413.5,554.5 Z"/></g>
<g><path style="opacity:1" fill="#bff2e9" d="M 444.5,563.5 C 447.873,562.912 450.873,564.079 453.5,567C 449.392,568.335 446.392,567.168 444.5,563.5 Z"/></g>
<g><path style="opacity:0.138" fill="#eeeeee" d="M 643.5,502.5 C 650.616,507.787 656.116,514.454 660,522.5C 678.769,544.597 696.769,567.264 714,590.5C 743.638,630.145 773.305,669.812 803,709.5C 805,711.5 807,713.5 809,715.5C 818.764,729.078 828.264,742.745 837.5,756.5C 773.224,671.554 708.557,586.888 643.5,502.5 Z"/></g>
<g><path style="opacity:1" fill="#a9e9d3" d="M 624.5,577.5 C 631.982,578.492 639.648,578.825 647.5,578.5C 639.657,579.82 631.657,579.82 623.5,578.5C 623.624,577.893 623.957,577.56 624.5,577.5 Z"/></g>
<g><path style="opacity:0.999" fill="#fbfcfc" d="M 717.5,607.5 C 763.743,667.653 809.743,727.987 855.5,788.5C 779.167,788.5 702.833,788.5 626.5,788.5C 507.833,788.5 389.167,788.5 270.5,788.5C 194.833,788.5 119.167,788.5 43.5,788.5C 43.5,787.5 43.5,786.5 43.5,785.5C 50.072,778.018 56.4054,770.351 62.5,762.5C 87.9839,760.129 112.651,754.296 136.5,745C 152.328,736.587 167.994,727.92 183.5,719C 201.089,712.137 218.756,705.47 236.5,699C 254.713,691.07 271.046,680.403 285.5,667C 287.717,665.725 290.051,664.725 292.5,664C 348.786,659.454 405.12,655.454 461.5,652C 477.562,649.091 492.562,643.425 506.5,635C 513.58,635.925 520.747,636.425 528,636.5C 537.99,637.102 547.49,635.269 556.5,631C 561.543,626.288 566.877,621.955 572.5,618C 595.421,609.885 618.755,608.218 642.5,613C 657.8,618.578 673.467,619.912 689.5,617C 699.181,614.718 708.514,611.551 717.5,607.5 Z"/></g>
<g><path style="opacity:1" fill="#caf6ef" d="M 446.5,611.5 C 446.735,610.903 447.235,610.57 448,610.5C 451.241,611.18 454.074,612.514 456.5,614.5C 454.926,615.631 453.259,615.798 451.5,615C 449.804,613.824 448.138,612.657 446.5,611.5 Z"/></g>
<g><path style="opacity:1" fill="#52d5a7" d="M 205.5,629.5 C 210.214,629.173 214.88,629.507 219.5,630.5C 221.812,639.31 227.478,644.477 236.5,646C 244.672,646.855 252.672,648.521 260.5,651C 261.517,652.049 261.684,653.216 261,654.5C 259.269,656.617 257.102,658.117 254.5,659C 241.003,662.205 227.336,664.538 213.5,666C 206.132,668.185 199.132,671.185 192.5,675C 183.136,684.03 174.136,693.363 165.5,703C 157.896,708.353 149.563,710.187 140.5,708.5C 141.269,705.49 142.103,702.49 143,699.5C 150.468,691.693 158.801,685.027 168,679.5C 169.46,675.202 168.126,672.202 164,670.5C 159.807,663.703 159.474,656.703 163,649.5C 166.581,645.248 170.748,641.748 175.5,639C 185.644,635.895 195.644,632.728 205.5,629.5 Z"/></g>
<g><path style="opacity:1" fill="#76d5b3" d="M 719.5,655.5 C 699.514,654.634 679.514,654.3 659.5,654.5C 670.124,652.98 680.957,652.313 692,652.5C 699.5,652.667 707,652.833 714.5,653C 716.315,653.757 717.981,654.59 719.5,655.5 Z"/></g>
<g><path style="opacity:1" fill="#4dd5a5" d="M 659.5,654.5 C 679.514,654.3 699.514,654.634 719.5,655.5C 728.67,656.335 736.504,660.002 743,666.5C 745,670.5 745,674.5 743,678.5C 738.582,682.247 734.916,686.58 732,691.5C 731.667,701.833 731.333,712.167 731,722.5C 729.234,726.867 726.4,730.367 722.5,733C 717.909,734.864 713.243,736.53 708.5,738C 692.899,739.378 677.566,742.044 662.5,746C 658.833,748.333 655.167,750.667 651.5,753C 645.802,759.032 639.802,764.699 633.5,770C 624.079,775.578 614.079,776.912 603.5,774C 595.652,768.573 587.318,763.906 578.5,760C 551.848,759.01 528.181,750.343 507.5,734C 500.119,726.744 494.619,718.244 491,708.5C 490.192,706.421 490.359,704.421 491.5,702.5C 514.452,690.461 538.619,682.128 564,677.5C 575.507,678.632 587.007,679.465 598.5,680C 604.21,677.433 607.043,672.933 607,666.5C 623.65,659.134 641.15,655.134 659.5,654.5 Z"/></g>
<g><path style="opacity:1" fill="#4ed5a5" d="M 317.5,685.5 C 325.507,686.003 332.841,688.503 339.5,693C 346.769,693.844 353.769,692.844 360.5,690C 369.532,689.335 378.532,689.668 387.5,691C 405.831,696.415 423.831,702.749 441.5,710C 447.908,713.323 450.075,718.489 448,725.5C 443.73,733.086 437.23,737.586 428.5,739C 423.5,739.667 418.5,739.667 413.5,739C 407.137,736.434 400.637,734.268 394,732.5C 389.767,733.611 386.434,735.944 384,739.5C 383.481,750.176 382.814,760.843 382,771.5C 379.414,777.088 375.247,780.921 369.5,783C 347.498,787.423 332.665,779.256 325,758.5C 321.394,747.016 317.394,735.682 313,724.5C 307.617,718.622 302.45,712.622 297.5,706.5C 300.849,696.154 307.516,689.154 317.5,685.5 Z"/></g>
<g><path style="opacity:1" fill="#51d5a6" d="M 222.5,746.5 C 228.882,745.588 234.215,747.421 238.5,752C 243.855,752.928 249.189,753.928 254.5,755C 259.387,760.886 263.887,767.053 268,773.5C 268.667,774.5 268.667,775.5 268,776.5C 255.576,777.655 243.076,777.821 230.5,777C 225.833,775.125 221,773.958 216,773.5C 205.547,775.498 195.047,775.831 184.5,774.5C 181.162,769.027 182.162,764.527 187.5,761C 198.834,755.064 210.5,750.231 222.5,746.5 Z"/></g>
<g><path style="opacity:0.127" fill="#f1f1f1" d="M 837.5,756.5 C 840.981,757.99 842.981,760.657 843.5,764.5C 841.016,762.2 839.016,759.533 837.5,756.5 Z"/></g>
<g><path style="opacity:0.099" fill="#eeeeee" d="M 843.5,764.5 C 845.446,765.035 846.446,766.368 846.5,768.5C 844.738,767.738 843.738,766.404 843.5,764.5 Z"/></g>
<g><path style="opacity:0.148" fill="#eeeeee" d="M 846.5,768.5 C 848.446,769.035 849.446,770.368 849.5,772.5C 847.738,771.738 846.738,770.404 846.5,768.5 Z"/></g>
<g><path style="opacity:0.161" fill="#dbdbdb" d="M 849.5,772.5 C 850.906,772.973 851.573,773.973 851.5,775.5C 850.094,775.027 849.427,774.027 849.5,772.5 Z"/></g>
<g><path style="opacity:1" fill="#424242" d="M 42.5,785.5 C 42.8333,785.5 43.1667,785.5 43.5,785.5C 43.5,786.5 43.5,787.5 43.5,788.5C 119.167,788.5 194.833,788.5 270.5,788.5C 225.167,789.167 179.833,789.833 134.5,790.5C 103.836,789.969 73.1693,789.636 42.5,789.5C 42.5,788.167 42.5,786.833 42.5,785.5 Z"/></g>
<g><path style="opacity:1" fill="#464646" d="M 626.5,788.5 C 702.833,788.5 779.167,788.5 855.5,788.5C 831.582,789.884 806.915,790.55 781.5,790.5C 729.833,789.833 678.167,789.167 626.5,788.5 Z"/></g>
<g><path style="opacity:1" fill="#5c5c5c" d="M 270.5,788.5 C 389.167,788.5 507.833,788.5 626.5,788.5C 678.167,789.167 729.833,789.833 781.5,790.5C 769.167,790.5 756.833,790.5 744.5,790.5C 744.167,790.5 743.833,790.5 743.5,790.5C 694.167,790.5 644.833,790.5 595.5,790.5C 588.08,790.203 580.746,790.536 573.5,791.5C 427.27,790.651 280.937,790.317 134.5,790.5C 179.833,789.833 225.167,789.167 270.5,788.5 Z"/></g>
<g><path style="opacity:0.89" fill="#131313" d="M 39.5,784.5 C 40.609,784.557 41.609,784.89 42.5,785.5C 42.5,786.833 42.5,788.167 42.5,789.5C 73.1693,789.636 103.836,789.969 134.5,790.5C 280.937,790.317 427.27,790.651 573.5,791.5C 531.333,791.931 489.333,792.598 447.5,793.5C 310.5,793.5 173.5,793.5 36.5,793.5C 35.4017,792.399 35.235,791.066 36,789.5C 37.1764,787.804 38.343,786.138 39.5,784.5 Z"/></g>
<g><path style="opacity:0.601" fill="#252525" d="M 595.5,790.5 C 607.664,791.445 619.997,792.111 632.5,792.5C 632.5,792.833 632.5,793.167 632.5,793.5C 570.833,793.5 509.167,793.5 447.5,793.5C 489.333,792.598 531.333,791.931 573.5,791.5C 580.746,790.536 588.08,790.203 595.5,790.5 Z"/></g>
<g><path style="opacity:0.856" fill="#000100" d="M 595.5,790.5 C 644.833,790.5 694.167,790.5 743.5,790.5C 706.848,792.494 669.848,793.16 632.5,792.5C 619.997,792.111 607.664,791.445 595.5,790.5 Z"/></g>
<g><path style="opacity:0.455" fill="#3d3d3d" d="M 743.5,790.5 C 743.833,790.5 744.167,790.5 744.5,790.5C 744.5,791.5 744.5,792.5 744.5,793.5C 707.167,793.5 669.833,793.5 632.5,793.5C 632.5,793.167 632.5,792.833 632.5,792.5C 669.848,793.16 706.848,792.494 743.5,790.5 Z"/></g>
<g><path style="opacity:0.396" fill="#bbbbbb" d="M 36.5,793.5 C 173.5,793.5 310.5,793.5 447.5,793.5C 509.167,793.5 570.833,793.5 632.5,793.5C 669.833,793.5 707.167,793.5 744.5,793.5C 780.833,793.5 817.167,793.5 853.5,793.5C 848.033,794.616 842.366,795.283 836.5,795.5C 825.515,794.68 814.515,794.347 803.5,794.5C 547.666,794.833 291.999,794.5 36.5,793.5 Z"/></g>
</svg>
