<?xml version="1.0" standalone="no"?>
<!DOCTYPE svg PUBLIC "-//W3C//DTD SVG 20010904//EN"
 "http://www.w3.org/TR/2001/REC-SVG-20010904/DTD/svg10.dtd">
<svg version="1.0" xmlns="http://www.w3.org/2000/svg"
 width="360.000000pt" height="360.000000pt" viewBox="0 0 360.000000 360.000000"
 preserveAspectRatio="xMidYMid meet">

<g transform="translate(0.000000,360.000000) scale(0.100000,-0.100000)"
fill="#3498db" stroke="none">
<path d="M1760 1990 l0 -90 40 0 40 0 0 90 0 90 -40 0 -40 0 0 -90z"/>
<path d="M1580 1765 l0 -245 40 0 40 0 0 135 0 135 140 0 140 0 0 -75 0 -75
40 0 40 0 0 185 0 185 -40 0 -40 0 0 -70 0 -71 -137 3 -138 3 -3 68 -3 67 -39
0 -40 0 0 -245z"/>
<path d="M1760 1645 l0 -125 131 0 130 0 -3 43 -3 42 -85 0 -85 1 -3 82 -3 82
-39 0 -40 0 0 -125z"/>
</g>
</svg>
