<?xml version="1.0" encoding="UTF-8"?>
<!DOCTYPE svg PUBLIC "-//W3C//DTD SVG 1.1//EN" "http://www.w3.org/Graphics/SVG/1.1/DTD/svg11.dtd">
<svg xmlns="http://www.w3.org/2000/svg" version="1.1" width="1600px" height="1520px" style="shape-rendering:geometricPrecision; text-rendering:geometricPrecision; image-rendering:optimizeQuality; fill-rule:evenodd; clip-rule:evenodd" xmlns:xlink="http://www.w3.org/1999/xlink">
<g><path style="opacity:1" fill="#fefefe" d="M -0.5,-0.5 C 532.833,-0.5 1066.17,-0.5 1599.5,-0.5C 1599.5,506.167 1599.5,1012.83 1599.5,1519.5C 1066.17,1519.5 532.833,1519.5 -0.5,1519.5C -0.5,1012.83 -0.5,506.167 -0.5,-0.5 Z"/></g>
<g><path style="opacity:1" fill="#00a884" d="M 342.5,601.5 C 342.5,613.167 342.5,624.833 342.5,636.5C 368.932,634.939 383.265,647.273 385.5,673.5C 385.401,683.56 381.401,691.56 373.5,697.5C 372.369,695.926 372.202,694.259 373,692.5C 383.377,672.973 378.877,658.14 359.5,648C 353.912,646.711 348.245,646.211 342.5,646.5C 342.81,643.287 342.477,640.287 341.5,637.5C 341.172,625.322 341.505,613.322 342.5,601.5 Z"/></g>
<g><path style="opacity:1" fill="#00a884" d="M 341.5,637.5 C 342.477,640.287 342.81,643.287 342.5,646.5C 342.5,649.167 342.5,651.833 342.5,654.5C 362.655,652.153 372.489,661.153 372,681.5C 370.182,689.307 366.016,695.473 359.5,700C 356.072,701.94 352.406,703.106 348.5,703.5C 348.5,704.5 348.5,705.5 348.5,706.5C 347.518,703.038 347.185,699.371 347.5,695.5C 360.464,692.577 365.631,684.577 363,671.5C 358.434,663.48 351.934,661.146 343.5,664.5C 341.838,655.594 341.172,646.594 341.5,637.5 Z"/></g>
<g><path style="opacity:1" fill="#00a884" d="M 347.5,695.5 C 346.566,694.432 346.232,693.099 346.5,691.5C 346.5,690.167 346.5,688.833 346.5,687.5C 355.583,686.165 358.25,681.332 354.5,673C 349.017,672.492 347.35,674.825 349.5,680C 348.692,681.706 347.359,682.539 345.5,682.5C 344.423,676.688 343.757,670.688 343.5,664.5C 351.934,661.146 358.434,663.48 363,671.5C 365.631,684.577 360.464,692.577 347.5,695.5 Z"/></g>
<g><path style="opacity:1" fill="#00a884" d="M 1k255.5,671.5 C 1254.77,672.708 1254.43,674.041 1254.5,675.5C 1252.37,673.873 1250.37,672.04 1248.5,670C 1244.47,667.692 1242.97,668.858 1244,673.5C 1246.22,675.385 1248.06,677.551 1249.5,680C 1249.17,680.5 1248.83,681 1248.5,681.5C 1246.02,679.517 1243.68,677.35 1241.5,675C 1237.91,674.389 1236.75,675.889 1238,679.5C 1239.67,681.167 1241.33,682.833 1243,684.5C 1243.75,685.635 1243.58,686.635 1242.5,687.5C 1236.64,684.512 1234.14,679.846 1235,673.5C 1236.11,671.963 1237.61,671.297 1239.5,671.5C 1239.76,668.075 1241.59,666.075 1245,665.5C 1248.88,666.894 1252.38,668.894 1255.5,671.5 Z"/></g>
<g><path style="opacity:1" fill="#00a884" d="M 346.5,691.5 C 345.523,688.713 345.19,685.713 345.5,682.5C 347.359,682.539 348.692,681.706 349.5,680C 347.35,674.825 349.017,672.492 354.5,673C 358.25,681.332 355.583,686.165 346.5,687.5C 346.5,688.833 346.5,690.167 346.5,691.5 Z"/></g>
<g><path style="opacity:1" fill="#00a884" d="M 1255.5,671.5 C 1252.38,668.894 1248.88,666.894 1245,665.5C 1241.59,666.075 1239.76,668.075 1239.5,671.5C 1237.61,671.297 1236.11,671.963 1235,673.5C 1234.14,679.846 1236.64,684.512 1242.5,687.5C 1243.58,686.635 1243.75,685.635 1243,684.5C 1241.33,682.833 1239.67,681.167 1238,679.5C 1236.75,675.889 1237.91,674.389 1241.5,675C 1243.68,677.35 1246.02,679.517 1248.5,681.5C 1248.83,681 1249.17,680.5 1249.5,680C 1248.06,677.551 1246.22,675.385 1244,673.5C 1242.97,668.858 1244.47,667.692 1248.5,670C 1250.37,672.04 1252.37,673.873 1254.5,675.5C 1245.31,760.785 1214.97,837.452 1163.5,905.5C 1152.45,914.399 1142.12,924.233 1132.5,935C 1131.55,935.483 1130.55,935.649 1129.5,935.5C 1129.34,939.054 1127.67,940.387 1124.5,939.5C 1124.81,941.201 1124.31,942.868 1123,944.5C 1112.42,955.084 1101.58,965.918 1090.5,977C 1089.55,977.483 1088.55,977.649 1087.5,977.5C 1086.91,980.614 1085.24,983.114 1082.5,985C 1083.06,985.383 1083.39,985.883 1083.5,986.5C 1083.5,987.167 1083.17,987.5 1082.5,987.5C 1081.85,987.196 1081.18,986.863 1080.5,986.5C 1078.89,989.284 1076.55,991.118 1073.5,992C 1074.06,992.383 1074.39,992.883 1074.5,993.5C 1054.38,1008.74 1033.04,1022.24 1010.5,1034C 1007.3,1036.87 1004.46,1040.04 1002,1043.5C 942.355,1167.73 882.688,1292.06 823,1416.5C 814.88,1426.43 804.38,1430.27 791.5,1428C 785.179,1425.67 780.013,1421.84 776,1416.5C 745.673,1354.32 715.839,1291.99 686.5,1229.5C 689.455,1231.12 692.122,1233.12 694.5,1235.5C 695.583,1234.64 695.749,1233.64 695,1232.5C 693,1230.5 691,1228.5 689,1226.5C 688.699,1223.91 689.866,1223.08 692.5,1224C 694.792,1225.29 696.792,1226.96 698.5,1229C 699.448,1229.48 700.448,1229.65 701.5,1229.5C 701.607,1227.1 700.607,1225.26 698.5,1224C 696.194,1221.86 693.527,1220.36 690.5,1219.5C 687.149,1220.24 685.149,1222.24 684.5,1225.5C 654.777,1163.86 624.943,1102.19 595,1040.5C 592.833,1038.33 590.667,1036.17 588.5,1034C 457.392,962.666 377.392,853.499 348.5,706.5C 348.5,705.5 348.5,704.5 348.5,703.5C 352.406,703.106 356.072,701.94 359.5,700C 366.016,695.473 370.182,689.307 372,681.5C 372.489,661.153 362.655,652.153 342.5,654.5C 342.5,651.833 342.5,649.167 342.5,646.5C 348.245,646.211 353.912,646.711 359.5,648C 378.877,658.14 383.377,672.973 373,692.5C 372.202,694.259 372.369,695.926 373.5,697.5C 381.401,691.56 385.401,683.56 385.5,673.5C 383.265,647.273 368.932,634.939 342.5,636.5C 342.5,624.833 342.5,613.167 342.5,601.5C 353.803,456.022 417.803,340.189 534.5,254C 655.792,171.712 787.459,150.046 929.5,189C 1048.81,225.967 1139.31,298.801 1201,407.5C 1245.46,490.021 1263.63,578.021 1255.5,671.5 Z"/></g>
<g><path style="opacity:1" fill="#00a884" d="M 1188.5,709.5 C 1190.39,710.048 1192.06,711.048 1193.5,712.5C 1196.34,715.177 1199.01,718.011 1201.5,721C 1204.01,728.486 1201.35,731.819 1193.5,731C 1188.11,728.154 1186.77,724.154 1189.5,719C 1190.45,718.517 1191.45,718.351 1192.5,718.5C 1191.48,721.393 1191.48,724.226 1192.5,727C 1197.35,729.487 1199.52,727.987 1199,722.5C 1195.67,719.167 1192.33,715.833 1189,712.5C 1188.52,711.552 1188.35,710.552 1188.5,709.5 Z"/></g>
<g><path style="opacity:1" fill="#00a884" d="M 1201.5,706.5 C 1202.5,706.5 1203.5,706.5 1204.5,706.5C 1204.58,707.93 1204.25,709.264 1203.5,710.5C 1205.1,713.601 1207.27,716.268 1210,718.5C 1210.59,719.483 1210.26,720.15 1209,720.5C 1202.62,717.685 1200.12,713.018 1201.5,706.5 Z"/></g>
<g><path style="opacity:1" fill="#00a884" d="M 1212.5,695.5 C 1214.17,695.5 1215.83,695.5 1217.5,695.5C 1217.5,698.5 1217.5,701.5 1217.5,704.5C 1216.5,704.5 1215.5,704.5 1214.5,704.5C 1214.54,699.053 1213.54,698.553 1211.5,703C 1212.67,706.528 1215.01,707.861 1218.5,707C 1220.05,705.108 1221.89,703.608 1224,702.5C 1225.06,702.63 1225.89,703.13 1226.5,704C 1224.5,706 1222.5,708 1220.5,710C 1213.88,711.387 1209.88,708.72 1208.5,702C 1209.21,699.413 1210.54,697.246 1212.5,695.5 Z"/></g>
<g><path style="opacity:1" fill="#00a884" d="M 1224.5,683.5 C 1230.4,683.035 1234.9,685.368 1238,690.5C 1238.59,691.483 1238.26,692.15 1237,692.5C 1236.5,692.333 1236,692.167 1235.5,692C 1233.57,689.562 1231.24,687.728 1228.5,686.5C 1225.03,687.143 1223.86,689.143 1225,692.5C 1225.96,693.894 1227.29,694.561 1229,694.5C 1230.55,694.05 1232.05,693.883 1233.5,694C 1234.83,695 1234.83,696 1233.5,697C 1224.32,699.492 1220.49,695.992 1222,686.5C 1222.7,685.309 1223.53,684.309 1224.5,683.5 Z"/></g>
<g><path style="opacity:1" fill="#00a884" d="M 1179.5,595.5 C 1193.91,608.411 1207.91,621.911 1221.5,636C 1220.83,636.667 1220.17,636.667 1219.5,636C 1205.89,622.557 1192.56,609.057 1179.5,595.5 Z"/></g>
<g><path style="opacity:1" fill="#00a884" d="M 1179.5,595.5 C 1178.15,594.972 1176.82,594.805 1175.5,595C 1166.5,604 1157.5,613 1148.5,622C 1147.83,622.667 1147.17,622.667 1146.5,622C 1168.86,599.64 1191.19,577.306 1213.5,555C 1214.17,554.333 1214.83,554.333 1215.5,555C 1203.33,567.167 1191.17,579.333 1179,591.5C 1178.81,592.819 1178.97,594.153 1179.5,595.5 Z"/></g>
<g><path style="opacity:1" fill="#00a884" d="M 466.5,551.5 C 466.672,552.492 466.338,553.158 465.5,553.5C 452.868,565.631 440.368,577.965 428,590.5C 427.464,592.567 427.964,594.401 429.5,596C 427.609,596.309 426.275,595.475 425.5,593.5C 424.549,594.326 423.549,594.492 422.5,594C 436.779,579.217 451.446,565.051 466.5,551.5 Z"/></g>
<g><path style="opacity:1" fill="#00a884" d="M 985.5,340.5 C 981.941,337.609 979.608,333.942 978.5,329.5C 981.406,326.015 984.406,322.515 987.5,319C 993.379,319.284 997.713,322.117 1000.5,327.5C 1000.19,328.308 999.692,328.975 999,329.5C 996.833,327.333 994.667,325.167 992.5,323C 990.888,322.28 989.388,322.446 988,323.5C 989.065,326.606 991.065,329.273 994,331.5C 994.483,332.448 994.649,333.448 994.5,334.5C 991.03,333.712 988.363,331.712 986.5,328.5C 983.344,327.156 981.844,328.156 982,331.5C 984.54,333.705 986.707,336.205 988.5,339C 987.756,340.039 986.756,340.539 985.5,340.5 Z"/></g>
<g><path style="opacity:1" fill="#00a884" d="M 971.5,332.5 C 966.554,330.197 961.887,327.531 957.5,324.5C 960.994,320.247 965.328,319.413 970.5,322C 971.804,322.804 972.471,323.971 972.5,325.5C 971.777,327.782 971.443,330.116 971.5,332.5 Z"/></g>
<g><path style="opacity:1" fill="#00a884" d="M 999.5,306.5 C 1001.47,306.261 1003.3,306.594 1005,307.5C 1005.5,309.81 1005.66,312.143 1005.5,314.5C 1004.5,314.5 1003.5,314.5 1002.5,314.5C 1002.76,313.022 1002.43,311.689 1001.5,310.5C 998.877,312.875 999.211,315.041 1002.5,317C 1005.65,316.764 1008.65,315.931 1011.5,314.5C 1011.61,316.903 1010.61,318.736 1008.5,320C 1001.99,321.751 997.992,319.418 996.5,313C 996.84,310.489 997.84,308.322 999.5,306.5 Z"/></g>
<g><path style="opacity:1" fill="#00a884" d="M 731.5,292.5 C 729.095,293.768 726.428,294.435 723.5,294.5C 724.79,291.808 723.957,289.808 721,288.5C 720.312,287.668 720.479,287.002 721.5,286.5C 723.503,290.126 726.003,290.793 729,288.5C 729.492,289.549 729.326,290.549 728.5,291.5C 729.325,292.386 730.325,292.719 731.5,292.5 Z"/></g>
<g><path style="opacity:1" fill="#fefefe" d="M 957.5,324.5 C 961.887,327.531 966.554,330.197 971.5,332.5C 975.926,335.594 980.593,338.261 985.5,340.5C 1091.9,414.637 1143.74,516.97 1141,647.5C 1136.22,714.032 1114.72,774.365 1076.5,828.5C 1060.35,850.325 1042.02,870.325 1021.5,888.5C 1006.07,901.056 989.734,912.39 972.5,922.5C 967.216,925.137 962.216,928.137 957.5,931.5C 867.22,975.601 774.553,981.267 679.5,948.5C 669.112,944.143 658.779,939.476 648.5,934.5C 561.167,889.855 502.334,820.855 472,727.5C 455.404,670.029 453.237,612.029 465.5,553.5C 466.338,553.158 466.672,552.492 466.5,551.5C 489.743,457.472 542.41,384.972 624.5,334C 655.505,315.831 688.505,302.664 723.5,294.5C 726.428,294.435 729.095,293.768 731.5,292.5C 810.535,278.018 885.868,288.685 957.5,324.5 Z"/></g>
<g><path style="opacity:1" fill="#00a884" d="M 631.5,834.5 C 593.861,827.193 569.527,805.193 558.5,768.5C 559.776,765.815 559.442,763.148 557.5,760.5C 560.167,757.833 562.833,755.167 565.5,752.5C 566.086,752.709 566.586,753.043 567,753.5C 568.656,748.053 571.822,745.886 576.5,747C 573.606,744.04 573.939,743.206 577.5,744.5C 578.5,745.5 579.5,746.5 580.5,747.5C 579.524,749.123 580.024,750.457 582,751.5C 582.414,751.043 582.914,750.709 583.5,750.5C 592.874,760.042 602.374,769.375 612,778.5C 612.617,779.449 612.451,780.282 611.5,781C 615.237,782.951 618.237,784.951 620.5,787C 628.986,795.986 637.652,804.819 646.5,813.5C 647.548,815.456 648.048,817.456 648,819.5C 643.833,823.667 639.667,827.833 635.5,832C 634.216,832.684 633.049,832.517 632,831.5C 632.109,832.769 631.942,833.769 631.5,834.5 Z"/></g>
<g><path style="opacity:1" fill="#00a884" d="M 611.5,716.5 C 610.5,717.833 609.5,719.167 608.5,720.5C 603.155,717.687 600.655,713.353 601,707.5C 602.011,706.663 603.178,706.33 604.5,706.5C 603.986,708.512 603.82,710.512 604,712.5C 605.691,715.359 608.191,716.692 611.5,716.5 Z"/></g>
<g><path style="opacity:1" fill="#00a884" d="M 821.5,701.5 C 821.5,732.167 821.5,762.833 821.5,793.5C 835.677,793.171 849.677,793.504 863.5,794.5C 849.167,794.5 834.833,794.5 820.5,794.5C 820.169,763.329 820.502,732.329 821.5,701.5 Z"/></g>
<g><path style="opacity:1" fill="#fdfdfd" d="M 699.5,793.5 C 678.975,792.901 658.308,792.067 637.5,791C 611.264,782.758 599.431,764.925 602,737.5C 603.057,731.39 605.224,725.723 608.5,720.5C 609.5,719.167 610.5,717.833 611.5,716.5C 613.167,714.5 614.833,712.5 616.5,710.5C 619.857,708.134 623.19,705.801 626.5,703.5C 628.153,703.34 629.486,702.674 630.5,701.5C 632.564,701.313 634.564,700.813 636.5,700C 683.499,699.896 730.499,700.063 777.5,700.5C 777.5,731.5 777.5,762.5 777.5,793.5C 751.5,793.5 725.5,793.5 699.5,793.5 Z"/></g>
<g><path style="opacity:1" fill="#00a884" d="M 626.5,703.5 C 623.19,705.801 619.857,708.134 616.5,710.5C 608.551,707.953 606.885,703.286 611.5,696.5C 613.098,695.515 614.765,695.349 616.5,696C 617.444,698.719 617.777,701.552 617.5,704.5C 616.5,704.5 615.5,704.5 614.5,704.5C 614.66,702.801 614.494,701.134 614,699.5C 611.106,704.783 612.606,707.283 618.5,707C 620.402,703.507 623.069,702.34 626.5,703.5 Z"/></g>
<g><path style="opacity:1" fill="#00a884" d="M 634.5,686.5 C 635.81,688.148 637.143,689.814 638.5,691.5C 638,691.833 637.5,692.167 637,692.5C 634.551,691.056 632.385,689.222 630.5,687C 627.402,685.933 625.402,686.933 624.5,690C 625.588,694.403 628.255,695.57 632.5,693.5C 635.133,694.782 635.133,696.116 632.5,697.5C 630.955,698.452 629.288,698.785 627.5,698.5C 621.613,696.011 619.946,691.677 622.5,685.5C 626.722,682.757 630.722,683.09 634.5,686.5 Z"/></g>
<g><path style="opacity:1" fill="#00a884" d="M 655.5,674.5 C 655.103,675.525 654.437,675.692 653.5,675C 651.268,672.265 648.601,670.098 645.5,668.5C 643.717,669.348 643.217,670.681 644,672.5C 645.644,675.311 647.81,677.644 650.5,679.5C 649.635,680.583 648.635,680.749 647.5,680C 645.208,678.71 643.208,677.043 641.5,675C 637.912,674.389 636.746,675.889 638,679.5C 639.667,681.167 641.333,682.833 643,684.5C 643.749,685.635 643.583,686.635 642.5,687.5C 640.147,685.477 637.814,683.477 635.5,681.5C 632.145,676.226 633.478,672.893 639.5,671.5C 641.304,665.029 644.971,663.863 650.5,668C 652.79,669.777 654.457,671.944 655.5,674.5 Z"/></g>
<g><path style="opacity:1" fill="#00a884" d="M 963.5,675.5 C 961.337,677.083 959.004,678.416 956.5,679.5C 956.808,672.932 954.308,671.266 949,674.5C 948.893,677.131 948.727,679.631 948.5,682C 945.044,683.123 942.21,682.29 940,679.5C 936.886,669.725 940.386,664.059 950.5,662.5C 957.885,663.885 962.218,668.218 963.5,675.5 Z"/></g>
<g><path style="opacity:1" fill="#00a884" d="M 641.5,651.5 C 649.65,650.507 657.983,650.174 666.5,650.5C 667.706,653.139 669.706,653.972 672.5,653C 673.252,652.329 673.586,651.496 673.5,650.5C 674.5,650.5 675.5,650.5 676.5,650.5C 676.056,656.153 673.056,657.986 667.5,656C 665.833,655 664.5,653.667 663.5,652C 661.866,651.506 660.199,651.34 658.5,651.5C 658.567,653.401 658.233,655.234 657.5,657C 659.694,659.723 661.361,662.723 662.5,666C 662.478,668.183 661.478,669.683 659.5,670.5C 658.244,670.539 657.244,670.039 656.5,669C 657.804,668.196 658.471,667.029 658.5,665.5C 657.611,663.102 656.111,661.102 654,659.5C 653.048,656.356 653.881,653.856 656.5,652C 651.511,651.501 646.511,651.334 641.5,651.5 Z"/></g>
<g><path style="opacity:1" fill="#00a884" d="M 972.5,669.5 C 969.523,671.467 966.523,673.467 963.5,675.5C 962.218,668.218 957.885,663.885 950.5,662.5C 940.386,664.059 936.886,669.725 940,679.5C 942.21,682.29 945.044,683.123 948.5,682C 948.727,679.631 948.893,677.131 949,674.5C 954.308,671.266 956.808,672.932 956.5,679.5C 951.458,683.021 946.125,686.021 940.5,688.5C 930.935,682.66 928.101,674.326 932,663.5C 938.672,654.284 947.506,651.451 958.5,655C 961.432,657.018 964.265,659.184 967,661.5C 968.609,664.407 970.442,667.073 972.5,669.5 Z"/></g>
<g><path style="opacity:1" fill="#00a884" d="M 666.5,650.5 C 668.833,650.5 671.167,650.5 673.5,650.5C 673.586,651.496 673.252,652.329 672.5,653C 669.706,653.972 667.706,653.139 666.5,650.5 Z"/></g>
<g><path style="opacity:1" fill="#00a884" d="M 641.5,651.5 C 646.511,651.334 651.511,651.501 656.5,652C 653.881,653.856 653.048,656.356 654,659.5C 656.111,661.102 657.611,663.102 658.5,665.5C 658.471,667.029 657.804,668.196 656.5,669C 657.244,670.039 658.244,670.539 659.5,670.5C 659.043,672.773 657.71,674.106 655.5,674.5C 654.457,671.944 652.79,669.777 650.5,668C 644.971,663.863 641.304,665.029 639.5,671.5C 633.478,672.893 632.145,676.226 635.5,681.5C 635.371,683.216 635.038,684.883 634.5,686.5C 630.722,683.09 626.722,682.757 622.5,685.5C 619.946,691.677 621.613,696.011 627.5,698.5C 628.5,699.5 629.5,700.5 630.5,701.5C 629.486,702.674 628.153,703.34 626.5,703.5C 623.069,702.34 620.402,703.507 618.5,707C 612.606,707.283 611.106,704.783 614,699.5C 614.494,701.134 614.66,702.801 614.5,704.5C 615.5,704.5 616.5,704.5 617.5,704.5C 617.777,701.552 617.444,698.719 616.5,696C 614.765,695.349 613.098,695.515 611.5,696.5C 606.885,703.286 608.551,707.953 616.5,710.5C 614.833,712.5 613.167,714.5 611.5,716.5C 608.191,716.692 605.691,715.359 604,712.5C 603.82,710.512 603.986,708.512 604.5,706.5C 603.178,706.33 602.011,706.663 601,707.5C 600.655,713.353 603.155,717.687 608.5,720.5C 605.224,725.723 603.057,731.39 602,737.5C 599.431,764.925 611.264,782.758 637.5,791C 658.308,792.067 678.975,792.901 699.5,793.5C 691.493,793.334 683.493,793.5 675.5,794C 668.291,801.041 661.291,808.208 654.5,815.5C 655.718,816.803 655.385,817.803 653.5,818.5C 656.473,821.473 659.473,824.473 662.5,827.5C 661.573,828.906 660.573,830.406 659.5,832C 661.807,832.779 663.807,832.279 665.5,830.5C 666.415,832.98 667.915,833.647 670,832.5C 671.795,833.719 671.628,834.719 669.5,835.5C 658.341,836.659 647.008,836.826 635.5,836C 633.942,835.79 632.609,835.29 631.5,834.5C 631.942,833.769 632.109,832.769 632,831.5C 633.049,832.517 634.216,832.684 635.5,832C 639.667,827.833 643.833,823.667 648,819.5C 648.048,817.456 647.548,815.456 646.5,813.5C 637.652,804.819 628.986,795.986 620.5,787C 618.237,784.951 615.237,782.951 611.5,781C 612.451,780.282 612.617,779.449 612,778.5C 602.374,769.375 592.874,760.042 583.5,750.5C 582.914,750.709 582.414,751.043 582,751.5C 580.024,750.457 579.524,749.123 580.5,747.5C 579.5,746.5 578.5,745.5 577.5,744.5C 573.939,743.206 573.606,744.04 576.5,747C 571.822,745.886 568.656,748.053 567,753.5C 566.586,753.043 566.086,752.709 565.5,752.5C 562.833,755.167 560.167,757.833 557.5,760.5C 559.442,763.148 559.776,765.815 558.5,768.5C 550.196,731.971 559.196,700.471 585.5,674C 601.523,660.154 620.19,652.654 641.5,651.5 Z"/></g>
<g><path style="opacity:1" fill="#00a884" d="M 588.5,709.5 C 590.255,710.072 591.922,710.906 593.5,712C 596.305,715.141 599.138,718.308 602,721.5C 603.626,728.773 600.793,731.94 593.5,731C 588.183,728.548 586.683,724.715 589,719.5C 590.011,718.663 591.178,718.33 592.5,718.5C 591.477,721.393 591.477,724.226 592.5,727C 597.352,729.487 599.519,727.987 599,722.5C 595.667,719.167 592.333,715.833 589,712.5C 588.517,711.552 588.351,710.552 588.5,709.5 Z"/></g>
<g><path style="opacity:1" fill="#00a884" d="M 976.5,666.5 C 975.205,667.488 973.872,668.488 972.5,669.5C 970.442,667.073 968.609,664.407 967,661.5C 964.265,659.184 961.432,657.018 958.5,655C 947.506,651.451 938.672,654.284 932,663.5C 928.101,674.326 930.935,682.66 940.5,688.5C 937.426,689.302 934.426,690.302 931.5,691.5C 922.687,682.241 920.521,671.574 925,659.5C 933.657,647.607 945.157,643.773 959.5,648C 968.483,651.15 974.149,657.317 976.5,666.5 Z"/></g>
<g><path style="opacity:1" fill="#00a884" d="M 983.5,660.5 C 981.192,662.471 978.858,664.471 976.5,666.5C 974.149,657.317 968.483,651.15 959.5,648C 945.157,643.773 933.657,647.607 925,659.5C 920.521,671.574 922.687,682.241 931.5,691.5C 927.579,693.029 923.579,694.363 919.5,695.5C 907.404,676.894 909.071,659.728 924.5,644C 936.671,636.164 949.671,634.498 963.5,639C 973.544,643.205 980.211,650.371 983.5,660.5 Z"/></g>
<g><path style="opacity:1" fill="#00a884" d="M 933.5,372.5 C 933.67,373.822 933.337,374.989 932.5,376C 934.566,380.238 937.566,383.738 941.5,386.5C 942.583,385.635 942.749,384.635 942,383.5C 940.333,381.833 938.667,380.167 937,378.5C 936.235,376.934 936.402,375.601 937.5,374.5C 989.342,397.525 1022.84,436.525 1038,491.5C 1052.97,558.815 1034.8,615.148 983.5,660.5C 980.211,650.371 973.544,643.205 963.5,639C 949.671,634.498 936.671,636.164 924.5,644C 909.071,659.728 907.404,676.894 919.5,695.5C 909.722,698.303 899.722,700.137 889.5,701C 866.836,701.5 844.169,701.667 821.5,701.5C 820.502,732.329 820.169,763.329 820.5,794.5C 834.833,794.5 849.167,794.5 863.5,794.5C 881.503,794.333 899.503,794.5 917.5,795C 931.672,800.476 935.839,810.309 930,824.5C 926.967,828.938 922.8,831.771 917.5,833C 885.497,833.414 853.497,833.914 821.5,834.5C 821.667,856.169 821.5,877.836 821,899.5C 815.5,917.001 804.333,922.168 787.5,915C 785.333,912.833 783.167,910.667 781,908.5C 779.57,905.647 778.737,902.647 778.5,899.5C 778.5,877.833 778.5,856.167 778.5,834.5C 770.648,834.175 762.982,834.508 755.5,835.5C 726.833,835.5 698.167,835.5 669.5,835.5C 671.628,834.719 671.795,833.719 670,832.5C 667.915,833.647 666.415,832.98 665.5,830.5C 663.807,832.279 661.807,832.779 659.5,832C 660.573,830.406 661.573,828.906 662.5,827.5C 659.473,824.473 656.473,821.473 653.5,818.5C 655.385,817.803 655.718,816.803 654.5,815.5C 661.291,808.208 668.291,801.041 675.5,794C 683.493,793.5 691.493,793.334 699.5,793.5C 725.5,793.5 751.5,793.5 777.5,793.5C 777.5,762.5 777.5,731.5 777.5,700.5C 730.499,700.063 683.499,699.896 636.5,700C 634.564,700.813 632.564,701.313 630.5,701.5C 629.5,700.5 628.5,699.5 627.5,698.5C 629.288,698.785 630.955,698.452 632.5,697.5C 635.133,696.116 635.133,694.782 632.5,693.5C 628.255,695.57 625.588,694.403 624.5,690C 625.402,686.933 627.402,685.933 630.5,687C 632.385,689.222 634.551,691.056 637,692.5C 637.5,692.167 638,691.833 638.5,691.5C 637.143,689.814 635.81,688.148 634.5,686.5C 635.038,684.883 635.371,683.216 635.5,681.5C 637.814,683.477 640.147,685.477 642.5,687.5C 643.583,686.635 643.749,685.635 643,684.5C 641.333,682.833 639.667,681.167 638,679.5C 636.746,675.889 637.912,674.389 641.5,675C 643.208,677.043 645.208,678.71 647.5,680C 648.635,680.749 649.635,680.583 650.5,679.5C 647.81,677.644 645.644,675.311 644,672.5C 643.217,670.681 643.717,669.348 645.5,668.5C 648.601,670.098 651.268,672.265 653.5,675C 654.437,675.692 655.103,675.525 655.5,674.5C 657.71,674.106 659.043,672.773 659.5,670.5C 661.478,669.683 662.478,668.183 662.5,666C 661.361,662.723 659.694,659.723 657.5,657C 658.233,655.234 658.567,653.401 658.5,651.5C 660.199,651.34 661.866,651.506 663.5,652C 664.5,653.667 665.833,655 667.5,656C 673.056,657.986 676.056,656.153 676.5,650.5C 710.158,649.616 743.824,649.283 777.5,649.5C 777.832,637.482 777.499,625.482 776.5,613.5C 712.87,600.372 672.704,562.372 656,499.5C 654.709,492.881 653.876,486.215 653.5,479.5C 653.5,475.833 653.5,472.167 653.5,468.5C 668.833,468.5 684.167,468.5 699.5,468.5C 689.896,478.605 680.063,488.605 670,498.5C 669.333,499.167 669.333,499.833 670,500.5C 680.702,489.965 691.202,479.298 701.5,468.5C 782.833,468.5 864.167,468.5 945.5,468.5C 945.5,472.833 945.5,477.167 945.5,481.5C 943.483,502.911 937.15,522.911 926.5,541.5C 918.426,547.739 911.093,554.905 904.5,563C 907.436,562.107 909.936,560.274 912,557.5C 912.49,558.793 912.657,560.127 912.5,561.5C 888.737,589.867 858.404,606.867 821.5,612.5C 821.5,624.5 821.5,636.5 821.5,648.5C 842.836,648.667 864.169,648.5 885.5,648C 941.69,637.476 974.857,603.976 985,547.5C 988.557,494.105 966.39,455.605 918.5,432C 912.981,429.66 907.315,427.827 901.5,426.5C 901.702,424.011 901.202,421.677 900,419.5C 896.492,416.325 893.325,412.825 890.5,409C 888.333,408.5 887.5,409.333 888,411.5C 891.333,414.833 894.667,418.167 898,421.5C 898.483,422.448 898.649,423.448 898.5,424.5C 897.5,424.5 896.5,424.5 895.5,424.5C 893.708,424.634 892.042,424.301 890.5,423.5C 890.357,421.738 890.691,420.071 891.5,418.5C 888.213,417.432 886.546,418.765 886.5,422.5C 885.5,422.5 884.5,422.5 883.5,422.5C 868.676,420.608 854.009,421.441 839.5,425C 827.948,429.108 816.615,433.775 805.5,439C 780.475,445.681 755.475,446.181 730.5,440.5C 746.632,423.868 762.965,407.368 779.5,391C 779.167,390.833 778.833,390.667 778.5,390.5C 762.681,405.819 747.014,421.319 731.5,437C 729.831,438.669 727.831,439.502 725.5,439.5C 720.402,438.809 715.402,437.642 710.5,436C 708.121,433.773 707.954,431.273 710,428.5C 715.998,419.676 722.164,411.01 728.5,402.5C 729.043,402.44 729.376,402.107 729.5,401.5C 719.188,400.501 708.855,400.168 698.5,400.5C 695.39,399.722 693.724,397.722 693.5,394.5C 700.916,370.579 716.249,353.746 739.5,344C 755.657,337.966 772.324,335.966 789.5,338C 799.555,339.277 809.555,340.944 819.5,343C 853.41,351.644 887.41,359.977 921.5,368C 925.485,369.605 929.485,371.105 933.5,372.5 Z"/></g>
<g><path style="opacity:1" fill="#00a884" d="M 926.5,541.5 C 922.323,548.525 917.656,555.192 912.5,561.5C 912.657,560.127 912.49,558.793 912,557.5C 909.936,560.274 907.436,562.107 904.5,563C 911.093,554.905 918.426,547.739 926.5,541.5 Z"/></g>
<g><path style="opacity:1" fill="#00a884" d="M 699.5,468.5 C 700.167,468.5 700.833,468.5 701.5,468.5C 691.202,479.298 680.702,489.965 670,500.5C 669.333,499.833 669.333,499.167 670,498.5C 680.063,488.605 689.896,478.605 699.5,468.5 Z"/></g>
<g><path style="opacity:1" fill="#00a884" d="M 945.5,481.5 C 945.5,477.167 945.5,472.833 945.5,468.5C 864.167,468.5 782.833,468.5 701.5,468.5C 700.833,468.5 700.167,468.5 699.5,468.5C 684.167,468.5 668.833,468.5 653.5,468.5C 653.5,472.167 653.5,475.833 653.5,479.5C 652.517,475.702 652.183,471.702 652.5,467.5C 750.5,467.5 848.5,467.5 946.5,467.5C 946.819,472.363 946.486,477.03 945.5,481.5 Z"/></g>
<g><path style="opacity:1" fill="#00a884" d="M 890.5,423.5 C 887.941,423.802 885.607,423.468 883.5,422.5C 884.5,422.5 885.5,422.5 886.5,422.5C 886.546,418.765 888.213,417.432 891.5,418.5C 890.691,420.071 890.357,421.738 890.5,423.5 Z"/></g>
<g><path style="opacity:1" fill="#00a884" d="M 901.5,426.5 C 899.374,425.952 897.374,425.285 895.5,424.5C 896.5,424.5 897.5,424.5 898.5,424.5C 898.649,423.448 898.483,422.448 898,421.5C 894.667,418.167 891.333,414.833 888,411.5C 887.5,409.333 888.333,408.5 890.5,409C 893.325,412.825 896.492,416.325 900,419.5C 901.202,421.677 901.702,424.011 901.5,426.5 Z"/></g>
<g><path style="opacity:1" fill="#00a884" d="M 901.5,404.5 C 903.676,405.713 904.009,407.38 902.5,409.5C 904.451,412.786 906.785,415.786 909.5,418.5C 909,418.833 908.5,419.167 908,419.5C 902.286,416.834 899.619,412.501 900,406.5C 900.717,405.956 901.217,405.289 901.5,404.5 Z"/></g>
<g><path style="opacity:1" fill="#00a884" d="M 730.5,440.5 C 728.585,440.784 726.919,440.451 725.5,439.5C 727.831,439.502 729.831,438.669 731.5,437C 747.014,421.319 762.681,405.819 778.5,390.5C 778.833,390.667 779.167,390.833 779.5,391C 762.965,407.368 746.632,423.868 730.5,440.5 Z"/></g>
<g><path style="opacity:1" fill="#00a884" d="M 698.5,400.5 C 708.855,400.168 719.188,400.501 729.5,401.5C 729.376,402.107 729.043,402.44 728.5,402.5C 718.5,401.833 708.5,401.167 698.5,400.5 Z"/></g>
<g><path style="opacity:1" fill="#00a884" d="M 911.5,394.5 C 913.144,394.286 914.644,394.62 916,395.5C 916.497,398.146 916.664,400.813 916.5,403.5C 915.5,403.5 914.5,403.5 913.5,403.5C 913.66,401.801 913.494,400.134 913,398.5C 910.772,402.026 911.606,404.693 915.5,406.5C 918.264,405.239 920.597,403.405 922.5,401C 923.483,400.409 924.15,400.743 924.5,402C 922.322,407.423 918.322,409.756 912.5,409C 906.4,404.398 906.066,399.565 911.5,394.5 Z"/></g>
<g><path style="opacity:1" fill="#00a884" d="M 923.5,382.5 C 929.83,382.147 934.497,384.814 937.5,390.5C 936.635,391.583 935.635,391.749 934.5,391C 932.088,387.967 929.088,386.3 925.5,386C 922.525,389.752 923.358,392.585 928,394.5C 929.819,392.464 931.653,392.297 933.5,394C 930.695,397.536 927.361,398.203 923.5,396C 919.519,391.386 919.519,386.886 923.5,382.5 Z"/></g>
<g><path style="opacity:1" fill="#00a884" d="M 933.5,372.5 C 935.153,372.66 936.486,373.326 937.5,374.5C 936.402,375.601 936.235,376.934 937,378.5C 938.667,380.167 940.333,381.833 942,383.5C 942.749,384.635 942.583,385.635 941.5,386.5C 937.566,383.738 934.566,380.238 932.5,376C 933.337,374.989 933.67,373.822 933.5,372.5 Z"/></g>
<g><path style="opacity:1" fill="#f9f9f9" d="M 777.5,354.5 C 794.517,354.672 801.351,363.005 798,379.5C 791.109,389.687 782.276,391.854 771.5,386C 765.788,380.331 763.955,373.497 766,365.5C 768.495,360.353 772.329,356.686 777.5,354.5 Z"/></g>
<g><path style="opacity:1" fill="#00a884" d="M 986.5,254.5 C 987.386,253.224 988.386,253.224 989.5,254.5C 1000.99,266.486 1012.65,278.319 1024.5,290C 1023.83,290.667 1023.17,290.667 1022.5,290C 1010.63,277.965 998.632,266.131 986.5,254.5 Z"/></g>
<g><path style="opacity:1" fill="#00a884" d="M 937.5,206.5 C 937.897,205.475 938.563,205.308 939.5,206C 942.833,209.333 946.167,212.667 949.5,216C 951.367,216.711 952.867,216.211 954,214.5C 954.448,216.409 953.615,217.576 951.5,218C 957.5,224 963.5,230 969.5,236C 968.833,236.667 968.167,236.667 967.5,236C 962.833,231.333 958.167,226.667 953.5,222C 950.811,222.573 947.978,223.407 945,224.5C 945.789,222.177 947.289,220.177 949.5,218.5C 945.839,214.173 941.839,210.173 937.5,206.5 Z"/></g>
<g><path style="opacity:1" fill="#00a884" d="M 434.5,750.5 C 439.74,754.233 444.574,758.566 449,763.5C 449.667,764.167 449.667,764.833 449,765.5C 443.27,761.271 438.436,756.271 434.5,750.5 Z"/></g>
<g><path style="opacity:1" fill="#00a884" d="M 1076.5,828.5 C 1076.81,829.738 1077.31,829.738 1078,828.5C 1078.62,829.449 1078.45,830.282 1077.5,831C 1078.58,831.956 1079.75,832.789 1081,833.5C 1082.71,832.055 1084.54,831.222 1086.5,831C 1084.51,832.319 1083.35,834.152 1083,836.5C 1081.41,837.376 1079.91,838.376 1078.5,839.5C 1079.83,842.833 1078.83,843.833 1075.5,842.5C 1059.5,859.167 1043.17,875.5 1026.5,891.5C 1027.65,893.149 1028.98,894.649 1030.5,896C 1029,896.507 1027.84,896.007 1027,894.5C 1026.67,894.833 1026.33,895.167 1026,895.5C 1025.69,894.692 1025.19,894.025 1024.5,893.5C 1023.41,895.015 1022.08,895.848 1020.5,896C 1021.17,894 1022.5,892.667 1024.5,892C 1023.29,890.961 1022.29,889.794 1021.5,888.5C 1042.02,870.325 1060.35,850.325 1076.5,828.5 Z"/></g>
<g><path style="opacity:1" fill="#00a884" d="M 755.5,835.5 C 762.982,834.508 770.648,834.175 778.5,834.5C 778.5,856.167 778.5,877.833 778.5,899.5C 777.503,878.34 777.169,857.007 777.5,835.5C 770.167,835.5 762.833,835.5 755.5,835.5 Z"/></g>
<g><path style="opacity:1" fill="#00a884" d="M 999.5,906.5 C 1001.5,906.5 1003.5,906.5 1005.5,906.5C 1005.5,909.167 1005.5,911.833 1005.5,914.5C 1004.5,914.5 1003.5,914.5 1002.5,914.5C 1002.99,908.78 1001.99,908.28 999.5,913C 1000.36,915.354 1002.02,916.854 1004.5,917.5C 1006.66,915.98 1009,914.98 1011.5,914.5C 1011.55,917.292 1010.21,919.125 1007.5,920C 1001.37,921.439 997.704,919.106 996.5,913C 996.84,910.489 997.84,908.322 999.5,906.5 Z"/></g>
<g><path style="opacity:1" fill="#00a884" d="M 987.5,918.5 C 989.199,918.34 990.866,918.506 992.5,919C 995.824,921.806 998.491,924.973 1000.5,928.5C 997.213,927.736 994.546,925.903 992.5,923C 991.167,922.333 989.833,922.333 988.5,923C 987.549,923.718 987.383,924.551 988,925.5C 990.553,927.716 992.72,930.216 994.5,933C 994.167,933.5 993.833,934 993.5,934.5C 990.553,933.219 988.219,931.219 986.5,928.5C 982.915,927.287 981.749,928.62 983,932.5C 985.209,934.373 987.042,936.54 988.5,939C 987.344,940.615 986.011,940.615 984.5,939C 981.049,936.722 979.049,933.555 978.5,929.5C 981.734,926.043 984.734,922.376 987.5,918.5 Z"/></g>
<g><path style="opacity:1" fill="#00a884" d="M 972.5,922.5 C 973.437,929.214 970.77,933.547 964.5,935.5C 961.687,934.929 959.354,933.596 957.5,931.5C 962.216,928.137 967.216,925.137 972.5,922.5 Z"/></g>
<g><path style="opacity:1" fill="#00a884" d="M 971.5,934.5 C 975.776,937.107 979.443,940.441 982.5,944.5C 981.635,945.583 980.635,945.749 979.5,945C 975.786,942.142 973.12,938.642 971.5,934.5 Z"/></g>
<g><path style="opacity:1" fill="#00a884" d="M 648.5,934.5 C 658.779,939.476 669.112,944.143 679.5,948.5C 679.062,948.435 678.728,948.601 678.5,949C 689.684,965.137 689.017,980.803 676.5,996C 675.552,996.483 674.552,996.649 673.5,996.5C 674.748,990.664 676.581,984.997 679,979.5C 679.554,955.39 667.72,944.223 643.5,946C 628.616,950.264 622.116,960.097 624,975.5C 629.458,992.979 640.625,998.146 657.5,991C 663.866,985.567 666.032,978.734 664,970.5C 661.136,964.76 656.469,961.76 650,961.5C 641.967,962.86 638.634,967.526 640,975.5C 641.375,981.167 644.708,982.834 650,980.5C 650.395,978.821 650.228,977.155 649.5,975.5C 650.143,972.025 652.143,970.859 655.5,972C 659.09,979.161 657.09,984.161 649.5,987C 637.832,987.998 631.832,982.664 631.5,971C 632.538,959.468 638.871,953.302 650.5,952.5C 662.681,953.174 670.181,959.507 673,971.5C 672.606,994.549 660.773,1005.05 637.5,1003C 618.299,996.779 610.133,983.612 613,963.5C 615.411,954.091 620.577,946.591 628.5,941C 635,937.888 641.667,935.721 648.5,934.5 Z"/></g>
<g><path style="opacity:1" fill="#00a884" d="M 1163.5,905.5 C 1140.2,935.796 1113.54,962.796 1083.5,986.5C 1083.39,985.883 1083.06,985.383 1082.5,985C 1085.24,983.114 1086.91,980.614 1087.5,977.5C 1088.55,977.649 1089.55,977.483 1090.5,977C 1101.58,965.918 1112.42,955.084 1123,944.5C 1124.31,942.868 1124.81,941.201 1124.5,939.5C 1127.67,940.387 1129.34,939.054 1129.5,935.5C 1130.55,935.649 1131.55,935.483 1132.5,935C 1142.12,924.233 1152.45,914.399 1163.5,905.5 Z"/></g>
<g><path style="opacity:1" fill="#00a884" d="M 966.5,939.5 C 968.344,940.204 968.844,941.537 968,943.5C 966.5,945 965,946.5 963.5,948C 965.355,951.233 968.021,952.566 971.5,952C 971.957,951.586 972.291,951.086 972.5,950.5C 971.253,948.677 970.586,946.677 970.5,944.5C 975.59,946.68 976.59,950.18 973.5,955C 971.167,955.667 968.833,955.667 966.5,955C 963.333,951.833 960.167,948.667 957,945.5C 956.409,944.517 956.743,943.85 958,943.5C 961.92,944.793 964.753,943.46 966.5,939.5 Z"/></g>
<g><path style="opacity:1" fill="#00a884" d="M 955.5,950.5 C 956.756,950.461 957.756,950.961 958.5,952C 957.427,953.313 956.76,954.813 956.5,956.5C 958.39,959.218 960.056,962.051 961.5,965C 961.252,968.082 959.585,969.582 956.5,969.5C 956.472,967.418 957.139,965.584 958.5,964C 952.721,960.238 951.721,955.738 955.5,950.5 Z"/></g>
<g><path style="opacity:1" fill="#00a884" d="M 941.5,964.5 C 943.527,964.338 945.527,964.505 947.5,965C 950.167,967.667 952.833,970.333 955.5,973C 954.975,973.692 954.308,974.192 953.5,974.5C 951.35,972.851 949.35,971.018 947.5,969C 945.866,968.506 944.199,968.34 942.5,968.5C 942.491,970.308 942.991,971.975 944,973.5C 945.685,975.017 947.185,976.684 948.5,978.5C 947.635,979.583 946.635,979.749 945.5,979C 943.326,975.63 940.326,973.797 936.5,973.5C 936.34,975.199 936.506,976.866 937,978.5C 939.222,980.385 941.056,982.551 942.5,985C 942.15,986.257 941.483,986.591 940.5,986C 937.059,983.232 934.393,979.899 932.5,976C 933.113,972.55 935.113,970.716 938.5,970.5C 938.615,968.053 939.615,966.053 941.5,964.5 Z"/></g>
<g><path style="opacity:1" fill="#00a884" d="M 923.5,982.5 C 928.874,981.937 933.041,983.937 936,988.5C 936.749,989.635 936.583,990.635 935.5,991.5C 933.273,989.565 930.939,987.732 928.5,986C 924.513,985.661 923.013,987.494 924,991.5C 924.5,992 925,992.5 925.5,993C 928.131,993.107 930.631,993.273 933,993.5C 933.507,994.996 933.007,996.163 931.5,997C 922.837,998 919.337,994.167 921,985.5C 921.698,984.309 922.531,983.309 923.5,982.5 Z"/></g>
<g><path style="opacity:1" fill="#00a884" d="M 1082.5,987.5 C 1080.14,989.853 1077.47,991.853 1074.5,993.5C 1074.39,992.883 1074.06,992.383 1073.5,992C 1076.55,991.118 1078.89,989.284 1080.5,986.5C 1081.18,986.863 1081.85,987.196 1082.5,987.5 Z"/></g>
<g><path style="opacity:1" fill="#00a884" d="M 911.5,994.5 C 913.144,994.286 914.644,994.62 916,995.5C 916.497,998.146 916.664,1000.81 916.5,1003.5C 915.5,1003.5 914.5,1003.5 913.5,1003.5C 913.785,1001.71 913.452,1000.05 912.5,998.5C 910.934,1002.14 911.934,1004.8 915.5,1006.5C 918.45,1004.88 921.116,1002.88 923.5,1000.5C 924.287,1001.24 924.953,1002.08 925.5,1003C 918.033,1012.3 912.033,1011.64 907.5,1001C 908.205,998.458 909.539,996.292 911.5,994.5 Z"/></g>
<g><path style="opacity:1" fill="#00a884" d="M 901.5,1004.5 C 902.478,1004.81 903.145,1005.48 903.5,1006.5C 902.515,1008.1 902.349,1009.76 903,1011.5C 905.35,1013.68 907.517,1016.02 909.5,1018.5C 909,1018.83 908.5,1019.17 908,1019.5C 902.286,1016.83 899.619,1012.5 900,1006.5C 900.717,1005.96 901.217,1005.29 901.5,1004.5 Z"/></g>
<g><path style="opacity:1" fill="#00a884" d="M 888.5,1008.5 C 889.239,1008.37 889.906,1008.54 890.5,1009C 893.688,1013.18 897.188,1017.02 901,1020.5C 902.167,1028 899,1031.17 891.5,1030C 888.44,1027.99 886.774,1025.16 886.5,1021.5C 886.887,1018.14 888.553,1017.14 891.5,1018.5C 889.938,1021.61 890.271,1024.45 892.5,1027C 895.814,1028.16 897.814,1027 898.5,1023.5C 895.559,1019.06 892.059,1015.06 888,1011.5C 887.53,1010.42 887.697,1009.42 888.5,1008.5 Z"/></g>
<g><path style="opacity:1" fill="#00a884" d="M 722.5,1047.5 C 722.511,1045.98 723.177,1044.82 724.5,1044C 740.752,1027.75 758.419,1010.08 777.5,991C 778.167,990.333 778.833,990.333 779.5,991C 760.222,1010.45 741.222,1029.28 722.5,1047.5 Z"/></g>
<g><path style="opacity:1" fill="#00a884" d="M 722.5,1047.5 C 704.84,1065.99 686.84,1083.83 668.5,1101C 685.697,1082.3 703.697,1064.47 722.5,1047.5 Z"/></g>
<g><path style="opacity:1" fill="#00a884" d="M 671.5,1139.5 C 664.737,1134.24 658.403,1128.41 652.5,1122C 650.395,1122.6 648.229,1123.43 646,1124.5C 645.333,1123.83 645.333,1123.17 646,1122.5C 648.185,1121.07 650.185,1119.4 652,1117.5C 658.694,1124.69 665.194,1132.03 671.5,1139.5 Z"/></g>
<g><path style="opacity:1" fill="#00a884" d="M 671.5,1139.5 C 677.978,1143.81 683.145,1149.14 687,1155.5C 680.937,1150.94 675.77,1145.61 671.5,1139.5 Z"/></g>
<g><path style="opacity:1" fill="#00a884" d="M 701.5,1206.5 C 703.144,1206.29 704.644,1206.62 706,1207.5C 706.497,1210.15 706.664,1212.81 706.5,1215.5C 705.5,1215.5 704.5,1215.5 703.5,1215.5C 703.989,1209.78 702.989,1209.28 700.5,1214C 701.661,1217.51 703.994,1218.84 707.5,1218C 708.653,1216.12 710.319,1215.28 712.5,1215.5C 712.548,1218.29 711.215,1220.13 708.5,1221C 700.333,1222.17 696.833,1218.67 698,1210.5C 699.376,1209.29 700.542,1207.96 701.5,1206.5 Z"/></g>
<g><path style="opacity:1" fill="#00a884" d="M 686.5,1229.5 C 685.326,1228.49 684.66,1227.15 684.5,1225.5C 685.149,1222.24 687.149,1220.24 690.5,1219.5C 693.527,1220.36 696.194,1221.86 698.5,1224C 700.607,1225.26 701.607,1227.1 701.5,1229.5C 700.448,1229.65 699.448,1229.48 698.5,1229C 696.792,1226.96 694.792,1225.29 692.5,1224C 689.866,1223.08 688.699,1223.91 689,1226.5C 691,1228.5 693,1230.5 695,1232.5C 695.749,1233.64 695.583,1234.64 694.5,1235.5C 692.122,1233.12 689.455,1231.12 686.5,1229.5 Z"/></g>
<g><path style="opacity:1" fill="#00a884 " d="M 780.5,1286.5 C 781.525,1286.9 781.692,1287.56 781,1288.5C 775.123,1294.38 769.29,1300.21 763.5,1306C 762.833,1306.67 762.167,1306.67 761.5,1306C 767.505,1299.14 773.838,1292.64 780.5,1286.5 Z"/></g>
</svg>
